<?xml version="1.0" encoding="UTF-8"?>
<svg width="259px" height="259px" viewBox="0 0 259 259" version="1.1" xmlns="http://www.w3.org/2000/svg" xmlns:xlink="http://www.w3.org/1999/xlink">
    <!-- Generator: Sketch 49 (51002) - http://www.bohemiancoding.com/sketch -->
    <title>camera</title>
    <desc>Created with Sketch.</desc>
    <defs></defs>
    <g id="camera" stroke="none" stroke-width="1" fill="none" fill-rule="evenodd">
        <g id="icon/camera" transform="translate(68.000000, 79.000000)">
            <polygon id="Fill-164" fill="#FFFFFF" points="103.431818 16.8333333 97.8409091 0 58.7045455 0 53.1136364 16.8333333 0 16.8333333 0 101 123 101 123 16.8333333"></polygon>
            <polygon id="Fill-343" fill="#CCE7FF" points="100 40 56 65.3333333 78 78 100 65.3333333"></polygon>
            <polygon id="Fill-344" fill="#CCE7FF" points="111.818182 89 11.1818182 89 0 101 123 100.964"></polygon>
            <polygon id="Fill-345" fill="#CCE7FF" points="20.5 31 12 39.5 20.5 48 29 39.5"></polygon>
            <polygon id="Stroke-900" stroke="#253494" stroke-width="2" stroke-linecap="round" stroke-linejoin="round" points="103.431818 16.8333333 97.8409091 0 58.7045455 0 53.1136364 16.8333333 0 16.8333333 0 101 123 101 123 16.8333333"></polygon>
            <polygon id="Stroke-901" stroke="#253494" stroke-width="2" stroke-linecap="round" stroke-linejoin="round" points="20.5 31 12 39.5 20.5 48 29 39.5"></polygon>
            <path d="M12,5 L24,5" id="Stroke-902" stroke="#253494" stroke-width="2" stroke-linecap="round" stroke-linejoin="round"></path>
            <polygon id="Stroke-903" stroke="#253494" stroke-width="2" stroke-linecap="round" stroke-linejoin="round" points="100 64.25 78 77 56 64.25 56 38.75 78 26 100 38.75"></polygon>
            <polygon id="Stroke-904" stroke="#253494" stroke-width="2" stroke-linecap="round" stroke-linejoin="round" points="111 69.2962963 77.5 89 44 69.2962963 44 32.7037037 77.5 13 111 32.7037037"></polygon>
        </g>
    </g>
</svg>