<svg xmlns="http://www.w3.org/2000/svg" viewBox="0 0 1440 800"><title>hero_image</title><path d="M277.12,283.83a1.5,1.5,0,0,1-1.5-1.5V250.55a1.5,1.5,0,0,1,3,0v31.78A1.5,1.5,0,0,1,277.12,283.83Z" style="fill:#2c7fb8"/><path d="M568.43,232.63a1.5,1.5,0,0,1-1.5-1.5V188.76a1.5,1.5,0,0,1,3,0v42.37A1.5,1.5,0,0,1,568.43,232.63Z" style="fill:#2c7fb8"/><path d="M1249.92,331.5a1.5,1.5,0,0,1-1.5-1.5V248.78a1.5,1.5,0,1,1,3,0V330A1.5,1.5,0,0,1,1249.92,331.5Z" style="fill:#2c7fb8"/><path d="M7,797.59a1.5,1.5,0,0,1-1.5-1.5V737.83a1.51,1.51,0,0,1,.7-1.27L39,715.82V610.71a1.51,1.51,0,0,1,1.5-1.5H63.76v-90.3a1.5,1.5,0,0,1,1.5-1.5H85V504.78a1.5,1.5,0,0,1,1.5-1.5h19.88l1.58-11.07a1.51,1.51,0,0,1,1.49-1.29h16.15V450.05a1.5,1.5,0,0,1,1.5-1.5h56.5a1.5,1.5,0,0,1,1.5,1.5V476.8h18.19V390a1.53,1.53,0,0,1,.44-1.06l45.46-45.46v-6.44a1.5,1.5,0,0,1,.44-1.06l13.79-13.79,7-38.38a1.5,1.5,0,0,1,1.48-1.24h7.06a1.51,1.51,0,0,1,1.49,1.37l3.48,38.3L297.6,336a1.46,1.46,0,0,1,.44,1.06V350.6l42,45.47a1.54,1.54,0,0,1,.4,1v30.16l44.28-3.41a1.41,1.41,0,0,1,.46,0l60,14.12a1.51,1.51,0,0,1,1.16,1.43l3.5,182.14h18.21v-9.09a1.5,1.5,0,0,1,1.5-1.5h19.69V344.12a1.5,1.5,0,0,1,1.21-1.47l16.44-3.29V308.81a1.51,1.51,0,0,1,1.21-1.47l16.45-3.29V277a1.49,1.49,0,0,1,1.14-1.45l13-3.25V248.78a1.51,1.51,0,0,1,1-1.42l9.57-3.19v-9.51a1.5,1.5,0,0,1,1.2-1.47l17.66-3.53a1.47,1.47,0,0,1,.59,0l17.65,3.53a1.51,1.51,0,0,1,1.21,1.47v9.51l9.56,3.19a1.5,1.5,0,0,1,1,1.42v23.55l13,3.25A1.48,1.48,0,0,1,612.3,277v30.55l16.45,3.29a1.51,1.51,0,0,1,1.21,1.47V343l13,3.25a1.49,1.49,0,0,1,1.13,1.45v69.12h26.75a1.5,1.5,0,0,1,1.5,1.5v76.19H692a1.5,1.5,0,0,1,1.5,1.5v58.52h11.12V361.78a1.51,1.51,0,0,1,.83-1.35l6.23-3.11v-9.67a1.49,1.49,0,0,1,1.14-1.45l13-3.25V319.4a1.5,1.5,0,0,1,1.29-1.48l24.71-3.53a1.61,1.61,0,0,1,.89.14l14.12,7.06a1.51,1.51,0,0,1,.83,1.35V343.2L781,349.84a1.51,1.51,0,0,1,.83,1.34v9.52l9.57,3.18a1.52,1.52,0,0,1,1,1.43v9.09h28.78V358.25a1.5,1.5,0,0,1,1.5-1.5h9.09V344.12a1.5,1.5,0,0,1,1.5-1.5h12.62V322.94a1.5,1.5,0,0,1,1.32-1.49l28.24-3.53a1.47,1.47,0,0,1,1,.24l10.6,7.06a1.52,1.52,0,0,1,.66,1.25V343l9.57,3.19a1.5,1.5,0,0,1,1,1.42v13.2l13.29,6.65a1.49,1.49,0,0,1,.83,1.34V490.92h18.19v-9.09a1.5,1.5,0,0,1,1.5-1.5h12.62V443a1.5,1.5,0,0,1,1.5-1.5h45.9a1.5,1.5,0,0,1,1.5,1.5v23.22h12.63a1.5,1.5,0,0,1,1.5,1.5v23.21h19.68a1.5,1.5,0,0,1,1.5,1.5v91.72l14.66-14.65V457.11a1.5,1.5,0,0,1,1.5-1.5h23.22V407.68a1.5,1.5,0,0,1,1.5-1.5h88.27a1.5,1.5,0,0,1,1.5,1.5v86.78h16.16a1.53,1.53,0,0,1,.9.29l14.12,10.6a1.49,1.49,0,0,1,.6,1.2v77.06l7.59,7.59V368.84a1.51,1.51,0,0,1,1.14-1.46l27.11-6.77v-5.9a1.5,1.5,0,0,1,1.14-1.45l13.32-3.33,6.81-20.41a1.5,1.5,0,0,1,2.84,0l6.8,20.41,13.33,3.33a1.5,1.5,0,0,1,1.13,1.45v9.58l16.72,6.69a1.5,1.5,0,0,1,.94,1.39v55h122.08a1.5,1.5,0,0,1,1.5,1.5V531l17.54,42.09a1.5,1.5,0,1,1-2.76,1.15L1411,531.84a1.42,1.42,0,0,1-.12-.57V430.37H1288.76a1.5,1.5,0,0,1-1.5-1.5V373.39l-16.71-6.69a1.51,1.51,0,0,1-1-1.39v-9.42l-13-3.25a1.52,1.52,0,0,1-1.06-1l-5.64-16.92-5.64,16.92a1.52,1.52,0,0,1-1.06,1l-13,3.25v5.89a1.51,1.51,0,0,1-1.13,1.45L1202,370V594.82a1.5,1.5,0,0,1-.92,1.39,1.51,1.51,0,0,1-1.64-.33l-10.59-10.59a1.5,1.5,0,0,1-.44-1.06V507.3l-13.12-9.84h-17.16a1.5,1.5,0,0,1-1.5-1.5V409.18h-85.27v47.93a1.5,1.5,0,0,1-1.5,1.5h-23.22v111.5a1.52,1.52,0,0,1-.44,1.06l-17.66,17.65a1.5,1.5,0,0,1-2.56-1.06V493.92h-19.68a1.5,1.5,0,0,1-1.5-1.5V469.21H992.15a1.5,1.5,0,0,1-1.5-1.5V444.49h-42.9v37.34a1.5,1.5,0,0,1-1.5,1.5H933.63v9.09a1.5,1.5,0,0,1-1.5,1.5H910.94a1.5,1.5,0,0,1-1.5-1.5V369.77l-13.29-6.65a1.51,1.51,0,0,1-.83-1.34v-13l-9.57-3.19a1.5,1.5,0,0,1-1-1.42V327.27L875.26,321l-26.38,3.3v19.86a1.5,1.5,0,0,1-1.5,1.5H834.76v12.63a1.5,1.5,0,0,1-1.5,1.5h-9.09V375.9a1.5,1.5,0,0,1-1.5,1.5H790.89a1.5,1.5,0,0,1-1.5-1.5v-9.51l-9.57-3.19a1.5,1.5,0,0,1-1-1.42v-9.67l-13.29-6.65a1.49,1.49,0,0,1-.83-1.34V323.86l-12.88-6.44-23,3.29v23.41a1.51,1.51,0,0,1-1.14,1.46l-13,3.24v9.43a1.51,1.51,0,0,1-.83,1.34l-6.23,3.11V556a1.5,1.5,0,0,1-1.5,1.5H692a1.5,1.5,0,0,1-1.5-1.5V497.46H670.83a1.5,1.5,0,0,1-1.5-1.5V419.77H642.58a1.5,1.5,0,0,1-1.5-1.5V348.82l-13-3.24a1.51,1.51,0,0,1-1.14-1.46V313.57l-16.45-3.29a1.5,1.5,0,0,1-1.21-1.47V278.2l-13-3.24a1.51,1.51,0,0,1-1.14-1.46V249.87l-9.57-3.19a1.51,1.51,0,0,1-1-1.43v-9.36l-16.16-3.23-16.15,3.23v9.36a1.52,1.52,0,0,1-1,1.43l-9.57,3.19V273.5a1.5,1.5,0,0,1-1.13,1.46l-13,3.24v27.08a1.5,1.5,0,0,1-1.21,1.47L509.9,310v30.55a1.49,1.49,0,0,1-1.2,1.47l-16.45,3.29V612.48a1.5,1.5,0,0,1-1.5,1.5H471.06v9.09a1.5,1.5,0,0,1-1.5,1.5H448.38a1.49,1.49,0,0,1-1.5-1.47l-3.51-182.45-58.67-13.8L339,430.36a1.42,1.42,0,0,1-1.13-.39,1.51,1.51,0,0,1-.48-1.1v-31.2l-42-45.47a1.54,1.54,0,0,1-.4-1v-13.5L281.36,324a1.49,1.49,0,0,1-.43-.93l-3.41-37.48h-4.44l-6.84,37.61a1.48,1.48,0,0,1-.42.8l-13.68,13.68v6.44a1.5,1.5,0,0,1-.44,1.06l-45.46,45.47V478.3a1.5,1.5,0,0,1-1.5,1.5H183.55a1.5,1.5,0,0,1-1.5-1.5V451.55h-53.5v40.87a1.5,1.5,0,0,1-1.5,1.5H110.7L109.12,505a1.51,1.51,0,0,1-1.49,1.28H88v12.63a1.5,1.5,0,0,1-1.5,1.5H66.76v90.3a1.5,1.5,0,0,1-1.5,1.5H42V716.64a1.49,1.49,0,0,1-.69,1.27L8.5,738.66v57.43A1.5,1.5,0,0,1,7,797.59Z" style="fill:#56cee2"/><path d="M503.11,615.74a1.5,1.5,0,0,1-1.5-1.5V356.48a1.5,1.5,0,0,1,3,0V614.24A1.5,1.5,0,0,1,503.11,615.74Z" style="fill:#56cee2"/><path d="M513.7,615.74a1.5,1.5,0,0,1-1.5-1.5V356.48a1.5,1.5,0,0,1,3,0V614.24A1.5,1.5,0,0,1,513.7,615.74Z" style="fill:#56cee2"/><path d="M524.29,615.74a1.5,1.5,0,0,1-1.5-1.5V356.48a1.5,1.5,0,0,1,3,0V614.24A1.5,1.5,0,0,1,524.29,615.74Z" style="fill:#56cee2"/><path d="M534.89,633.4a1.5,1.5,0,0,1-1.5-1.5V356.48a1.5,1.5,0,0,1,3,0V631.9A1.5,1.5,0,0,1,534.89,633.4Z" style="fill:#56cee2"/><path d="M545.48,633.4a1.5,1.5,0,0,1-1.5-1.5V356.48a1.5,1.5,0,0,1,3,0V631.9A1.5,1.5,0,0,1,545.48,633.4Z" style="fill:#56cee2"/><path d="M586.09,721.67a1.5,1.5,0,0,1-1.5-1.5V356.48a1.5,1.5,0,0,1,3,0V720.17A1.5,1.5,0,0,1,586.09,721.67Z" style="fill:#56cee2"/><path d="M596.68,721.67a1.5,1.5,0,0,1-1.5-1.5V356.48a1.5,1.5,0,0,1,3,0V720.17A1.5,1.5,0,0,1,596.68,721.67Z" style="fill:#56cee2"/><path d="M607.27,679.3a1.5,1.5,0,0,1-1.5-1.5V356.48a1.5,1.5,0,0,1,3,0V677.8A1.5,1.5,0,0,1,607.27,679.3Z" style="fill:#56cee2"/><path d="M617.87,679.3a1.5,1.5,0,0,1-1.5-1.5V356.48a1.5,1.5,0,0,1,3,0V677.8A1.5,1.5,0,0,1,617.87,679.3Z" style="fill:#56cee2"/><path d="M628.46,679.3a1.5,1.5,0,0,1-1.5-1.5V356.48a1.5,1.5,0,0,1,3,0V677.8A1.5,1.5,0,0,1,628.46,679.3Z" style="fill:#56cee2"/><path d="M522.53,342.09a1.5,1.5,0,0,1-1.5-1.5V315.87a1.5,1.5,0,0,1,3,0v24.72A1.5,1.5,0,0,1,522.53,342.09Z" style="fill:#56cee2"/><path d="M533.12,342.09a1.5,1.5,0,0,1-1.5-1.5V315.87a1.5,1.5,0,0,1,3,0v24.72A1.5,1.5,0,0,1,533.12,342.09Z" style="fill:#56cee2"/><path d="M543.71,342.09a1.5,1.5,0,0,1-1.5-1.5V315.87a1.5,1.5,0,0,1,3,0v24.72A1.5,1.5,0,0,1,543.71,342.09Z" style="fill:#56cee2"/><path d="M554.31,342.09a1.5,1.5,0,0,1-1.5-1.5V315.87a1.5,1.5,0,0,1,3,0v24.72A1.5,1.5,0,0,1,554.31,342.09Z" style="fill:#56cee2"/><path d="M582.56,343.86a1.5,1.5,0,0,1-1.5-1.5V317.64a1.5,1.5,0,0,1,3,0v24.72A1.51,1.51,0,0,1,582.56,343.86Z" style="fill:#56cee2"/><path d="M593.15,343.86a1.5,1.5,0,0,1-1.5-1.5V317.64a1.5,1.5,0,0,1,3,0v24.72A1.5,1.5,0,0,1,593.15,343.86Z" style="fill:#56cee2"/><path d="M603.74,343.86a1.5,1.5,0,0,1-1.5-1.5V317.64a1.5,1.5,0,0,1,3,0v24.72A1.5,1.5,0,0,1,603.74,343.86Z" style="fill:#56cee2"/><path d="M614.33,343.86a1.51,1.51,0,0,1-1.5-1.5V317.64a1.5,1.5,0,0,1,3,0v24.72A1.5,1.5,0,0,1,614.33,343.86Z" style="fill:#56cee2"/><path d="M536.65,308.55a1.5,1.5,0,0,1-1.5-1.5V282.33a1.5,1.5,0,0,1,3,0v24.72A1.5,1.5,0,0,1,536.65,308.55Z" style="fill:#56cee2"/><path d="M547.25,308.55a1.5,1.5,0,0,1-1.5-1.5V282.33a1.5,1.5,0,1,1,3,0v24.72A1.51,1.51,0,0,1,547.25,308.55Z" style="fill:#56cee2"/><path d="M557.84,308.55a1.5,1.5,0,0,1-1.5-1.5V282.33a1.5,1.5,0,0,1,3,0v24.72A1.5,1.5,0,0,1,557.84,308.55Z" style="fill:#56cee2"/><path d="M575.49,308.55a1.51,1.51,0,0,1-1.5-1.5V282.33a1.5,1.5,0,1,1,3,0v24.72A1.5,1.5,0,0,1,575.49,308.55Z" style="fill:#56cee2"/><path d="M586.09,308.55a1.5,1.5,0,0,1-1.5-1.5V282.33a1.5,1.5,0,0,1,3,0v24.72A1.5,1.5,0,0,1,586.09,308.55Z" style="fill:#56cee2"/><path d="M596.68,308.55a1.5,1.5,0,0,1-1.5-1.5V282.33a1.5,1.5,0,0,1,3,0v24.72A1.5,1.5,0,0,1,596.68,308.55Z" style="fill:#56cee2"/><rect x="547.26" y="254.08" width="3" height="17.66" style="fill:#56cee2"/><rect x="554.83" y="254.08" width="3" height="17.66" style="fill:#56cee2"/><rect x="575.51" y="254.08" width="3" height="17.66" style="fill:#56cee2"/><rect x="583.07" y="254.08" width="3" height="17.66" style="fill:#56cee2"/><path d="M766.17,395.06a1.5,1.5,0,0,1-.09-3l56.49-3.53a1.5,1.5,0,1,1,.19,3l-56.5,3.53Z" style="fill:#56cee2"/><path d="M910.94,382.11a1.51,1.51,0,0,1-.58-.12l-28.24-11.77a1.49,1.49,0,0,1-.81-2,1.51,1.51,0,0,1,2-.81l28.25,11.77a1.5,1.5,0,0,1-.58,2.89Z" style="fill:#56cee2"/><path d="M910.94,392.7a1.49,1.49,0,0,1-.58-.11l-28.24-11.77a1.5,1.5,0,1,1,1.15-2.77l28.25,11.77a1.5,1.5,0,0,1-.58,2.88Z" style="fill:#56cee2"/><path d="M910.94,403.29a1.49,1.49,0,0,1-.58-.11l-28.24-11.77a1.5,1.5,0,1,1,1.15-2.77l28.25,11.77a1.5,1.5,0,0,1-.58,2.88Z" style="fill:#56cee2"/><path d="M910.94,413.89a1.51,1.51,0,0,1-.58-.12L882.12,402a1.49,1.49,0,0,1-.81-2,1.51,1.51,0,0,1,2-.81L911.52,411a1.5,1.5,0,0,1-.58,2.89Z" style="fill:#56cee2"/><path d="M910.94,424.48a1.7,1.7,0,0,1-.58-.11L882.12,412.6a1.5,1.5,0,1,1,1.15-2.77l28.25,11.77a1.5,1.5,0,0,1-.58,2.88Z" style="fill:#56cee2"/><path d="M910.94,435.07a1.49,1.49,0,0,1-.58-.11l-28.24-11.77a1.5,1.5,0,1,1,1.15-2.77l28.25,11.77a1.5,1.5,0,0,1-.58,2.88Z" style="fill:#56cee2"/><path d="M910.94,445.67a1.51,1.51,0,0,1-.58-.12l-28.24-11.77a1.5,1.5,0,1,1,1.15-2.77l28.25,11.77a1.5,1.5,0,0,1-.58,2.89Z" style="fill:#56cee2"/><path d="M910.94,456.26a1.51,1.51,0,0,1-.58-.12l-28.24-11.76a1.5,1.5,0,1,1,1.15-2.77l28.25,11.77a1.51,1.51,0,0,1,.81,2A1.52,1.52,0,0,1,910.94,456.26Z" style="fill:#56cee2"/><path d="M910.94,466.85a1.49,1.49,0,0,1-.58-.11L882.12,455a1.5,1.5,0,1,1,1.15-2.77L911.52,464a1.5,1.5,0,0,1-.58,2.88Z" style="fill:#56cee2"/><path d="M910.94,477.45a1.51,1.51,0,0,1-.58-.12l-28.24-11.77a1.5,1.5,0,1,1,1.15-2.77l28.25,11.77a1.5,1.5,0,0,1-.58,2.89Z" style="fill:#56cee2"/><path d="M910.94,488a1.51,1.51,0,0,1-.58-.12l-28.24-11.77a1.49,1.49,0,0,1-.81-2,1.51,1.51,0,0,1,2-.81l28.25,11.77a1.5,1.5,0,0,1-.58,2.89Z" style="fill:#56cee2"/><path d="M1216.37,774.64a1.5,1.5,0,0,1-1.5-1.5V377.67a1.5,1.5,0,0,1,3,0V773.14A1.5,1.5,0,0,1,1216.37,774.64Z" style="fill:#56cee2"/><path d="M1234,774.64a1.5,1.5,0,0,1-1.5-1.5V377.67a1.5,1.5,0,0,1,3,0V773.14A1.5,1.5,0,0,1,1234,774.64Z" style="fill:#56cee2"/><path d="M1251.68,774.64a1.5,1.5,0,0,1-1.5-1.5V377.67a1.5,1.5,0,0,1,3,0V773.14A1.5,1.5,0,0,1,1251.68,774.64Z" style="fill:#56cee2"/><path d="M1269.34,774.64a1.5,1.5,0,0,1-1.5-1.5V377.67a1.5,1.5,0,0,1,3,0V773.14A1.5,1.5,0,0,1,1269.34,774.64Z" style="fill:#56cee2"/><path d="M766.17,409.18a1.5,1.5,0,0,1-.09-3l56.49-3.53a1.49,1.49,0,0,1,1.59,1.4,1.51,1.51,0,0,1-1.4,1.6l-56.5,3.53Z" style="fill:#56cee2"/><path d="M766.17,423.3a1.5,1.5,0,0,1-.09-3l56.49-3.53a1.5,1.5,0,1,1,.19,3l-56.5,3.53Z" style="fill:#56cee2"/><path d="M766.17,437.43a1.5,1.5,0,0,1-.09-3l56.49-3.53a1.5,1.5,0,1,1,.19,3l-56.5,3.53Z" style="fill:#56cee2"/><path d="M766.17,451.55a1.5,1.5,0,0,1-1.5-1.4,1.52,1.52,0,0,1,1.41-1.6L822.57,445a1.5,1.5,0,0,1,.19,3l-56.5,3.53Z" style="fill:#56cee2"/><path d="M766.17,465.68a1.5,1.5,0,0,1-.09-3l56.49-3.53a1.5,1.5,0,1,1,.19,3l-56.5,3.53Z" style="fill:#56cee2"/><path d="M766.17,479.8a1.5,1.5,0,0,1-.09-3l56.49-3.53a1.5,1.5,0,0,1,.19,3l-56.5,3.53Z" style="fill:#56cee2"/><path d="M766.17,493.92a1.5,1.5,0,0,1-.09-3l56.49-3.53a1.5,1.5,0,1,1,.19,3l-56.5,3.53Z" style="fill:#56cee2"/><path d="M766.17,508.05a1.5,1.5,0,0,1-.09-3l56.49-3.53a1.5,1.5,0,1,1,.19,3l-56.5,3.54Z" style="fill:#56cee2"/><path d="M766.17,522.17a1.5,1.5,0,0,1-.09-3l56.49-3.54a1.5,1.5,0,0,1,.19,3l-56.5,3.53Z" style="fill:#56cee2"/><path d="M766.17,536.3a1.5,1.5,0,0,1-.09-3l56.49-3.53a1.5,1.5,0,0,1,.19,3l-56.5,3.53Z" style="fill:#56cee2"/><path d="M766.17,550.42a1.5,1.5,0,0,1-.09-3l56.49-3.53a1.5,1.5,0,0,1,.19,3l-56.5,3.53Z" style="fill:#56cee2"/><path d="M766.17,564.54a1.5,1.5,0,0,1-.09-3L822.57,558a1.5,1.5,0,0,1,.19,3l-56.5,3.53Z" style="fill:#56cee2"/><path d="M766.17,578.67a1.5,1.5,0,0,1-.09-3l56.49-3.53a1.5,1.5,0,0,1,.19,3l-56.5,3.54Z" style="fill:#56cee2"/><path d="M766.17,592.79a1.5,1.5,0,0,1-.09-3l56.49-3.54a1.5,1.5,0,0,1,.19,3l-56.5,3.53Z" style="fill:#56cee2"/><path d="M766.17,606.92a1.5,1.5,0,0,1-.09-3l56.49-3.53a1.5,1.5,0,0,1,.19,3l-56.5,3.53Z" style="fill:#56cee2"/><path d="M766.17,621a1.5,1.5,0,0,1-.09-3l56.49-3.53a1.5,1.5,0,0,1,.19,3L766.26,621Z" style="fill:#56cee2"/><path d="M766.17,635.17a1.5,1.5,0,0,1-.09-3l56.49-3.53a1.5,1.5,0,0,1,.19,3l-56.5,3.53Z" style="fill:#56cee2"/><path d="M766.17,649.29a1.5,1.5,0,0,1-.09-3l56.49-3.53a1.5,1.5,0,0,1,.19,3l-56.5,3.54Z" style="fill:#56cee2"/><path d="M766.17,663.41a1.5,1.5,0,0,1-.09-3l56.49-3.54a1.5,1.5,0,0,1,.19,3l-56.5,3.53Z" style="fill:#56cee2"/><path d="M766.17,677.54a1.5,1.5,0,0,1-.09-3L822.57,671a1.5,1.5,0,0,1,.19,3l-56.5,3.53Z" style="fill:#56cee2"/><path d="M766.17,691.66a1.5,1.5,0,0,1-.09-3l56.49-3.53a1.5,1.5,0,0,1,.19,3l-56.5,3.53Z" style="fill:#56cee2"/><path d="M766.17,705.79a1.5,1.5,0,0,1-.09-3l56.49-3.53a1.5,1.5,0,0,1,.19,3l-56.5,3.53Z" style="fill:#56cee2"/><path d="M1175.77,568.08h-56.5a1.5,1.5,0,0,1-1.5-1.5V496a1.5,1.5,0,0,1,1.5-1.5h56.5a1.5,1.5,0,0,1,1.5,1.5v70.62A1.51,1.51,0,0,1,1175.77,568.08Zm-55-3h53.5V497.46h-53.5Z" style="fill:#56cee2"/><path d="M261.23,638.7H222.39a1.5,1.5,0,0,1-1.5-1.5V404.15a1.5,1.5,0,0,1,1.37-1.5l38.84-3.53a1.57,1.57,0,0,1,1.15.39,1.5,1.5,0,0,1,.48,1.11V637.2A1.5,1.5,0,0,1,261.23,638.7Zm-37.34-3h35.84V402.26l-35.84,3.26Z" style="fill:#56cee2"/><path d="M116.46,599.85H81.15a1.5,1.5,0,0,1-1.5-1.5V534.8a1.5,1.5,0,0,1,1.5-1.5h35.31a1.5,1.5,0,0,1,1.5,1.5v63.55A1.5,1.5,0,0,1,116.46,599.85Zm-33.81-3H115V536.3H82.65Z" style="fill:#56cee2"/><path d="M367.16,691.66H331.85a1.5,1.5,0,0,1-1.5-1.5V446.52A1.51,1.51,0,0,1,331.7,445L367,441.5a1.48,1.48,0,0,1,1.16.38,1.51,1.51,0,0,1,.49,1.11V690.16A1.5,1.5,0,0,1,367.16,691.66Zm-33.81-3h32.31v-244l-32.31,3.23Z" style="fill:#56cee2"/><path d="M56.43,674a1.51,1.51,0,0,1-1.5-1.5V626.6a1.5,1.5,0,0,1,3,0v45.91A1.5,1.5,0,0,1,56.43,674Z" style="fill:#56cee2"/><path d="M67,674a1.5,1.5,0,0,1-1.5-1.5V626.6a1.5,1.5,0,0,1,3,0v45.91A1.5,1.5,0,0,1,67,674Z" style="fill:#56cee2"/><path d="M77.62,674a1.5,1.5,0,0,1-1.5-1.5V626.6a1.5,1.5,0,0,1,3,0v45.91A1.5,1.5,0,0,1,77.62,674Z" style="fill:#56cee2"/><path d="M88.21,674a1.5,1.5,0,0,1-1.5-1.5V626.6a1.5,1.5,0,0,1,3,0v45.91A1.5,1.5,0,0,1,88.21,674Z" style="fill:#56cee2"/><path d="M98.81,674a1.5,1.5,0,0,1-1.5-1.5V626.6a1.5,1.5,0,0,1,3,0v45.91A1.5,1.5,0,0,1,98.81,674Z" style="fill:#56cee2"/><path d="M109.4,684.6a1.5,1.5,0,0,1-1.5-1.5V626.6a1.5,1.5,0,0,1,3,0v56.5A1.5,1.5,0,0,1,109.4,684.6Z" style="fill:#56cee2"/><path d="M120,684.6a1.5,1.5,0,0,1-1.5-1.5V626.6a1.5,1.5,0,0,1,3,0v56.5A1.5,1.5,0,0,1,120,684.6Z" style="fill:#56cee2"/><path d="M130.59,684.6a1.5,1.5,0,0,1-1.5-1.5V626.6a1.5,1.5,0,0,1,3,0v56.5A1.5,1.5,0,0,1,130.59,684.6Z" style="fill:#56cee2"/><path d="M141.18,698.72a1.5,1.5,0,0,1-1.5-1.5V626.6a1.5,1.5,0,0,1,3,0v70.62A1.5,1.5,0,0,1,141.18,698.72Z" style="fill:#56cee2"/><path d="M151.77,698.72a1.5,1.5,0,0,1-1.5-1.5V626.6a1.5,1.5,0,0,1,3,0v70.62A1.5,1.5,0,0,1,151.77,698.72Z" style="fill:#56cee2"/><path d="M162.36,698.72a1.5,1.5,0,0,1-1.5-1.5V626.6a1.5,1.5,0,0,1,3,0v70.62A1.5,1.5,0,0,1,162.36,698.72Z" style="fill:#56cee2"/><path d="M173,674a1.5,1.5,0,0,1-1.5-1.5V626.6a1.5,1.5,0,0,1,3,0v45.91A1.5,1.5,0,0,1,173,674Z" style="fill:#56cee2"/><path d="M183.55,674a1.5,1.5,0,0,1-1.5-1.5V626.6a1.5,1.5,0,0,1,3,0v45.91A1.5,1.5,0,0,1,183.55,674Z" style="fill:#56cee2"/><path d="M445.05,458.61a1.47,1.47,0,0,1-.36,0L388,444.45a1.5,1.5,0,1,1,.72-2.91l56.7,14.12a1.5,1.5,0,0,1-.36,2.95Z" style="fill:#56cee2"/><path d="M445.05,476.27a1.12,1.12,0,0,1-.36,0L388,462.1a1.5,1.5,0,1,1,.72-2.91l56.7,14.12a1.5,1.5,0,0,1-.36,3Z" style="fill:#56cee2"/><path d="M445.05,493.92a1.47,1.47,0,0,1-.36,0L388,479.75a1.5,1.5,0,1,1,.72-2.91L445.41,491a1.5,1.5,0,0,1-.36,2.95Z" style="fill:#56cee2"/><path d="M445.05,511.58a1.12,1.12,0,0,1-.36-.05L388,497.41a1.5,1.5,0,1,1,.72-2.91l56.7,14.12a1.5,1.5,0,0,1-.36,3Z" style="fill:#56cee2"/><path d="M445.05,529.23a1.47,1.47,0,0,1-.36,0L388,515.07a1.5,1.5,0,1,1,.72-2.91l56.7,14.12a1.5,1.5,0,0,1-.36,3Z" style="fill:#56cee2"/><path d="M445.05,546.89a1.12,1.12,0,0,1-.36,0L388,532.72a1.5,1.5,0,1,1,.72-2.91l56.7,14.12a1.5,1.5,0,0,1-.36,3Z" style="fill:#56cee2"/><path d="M445.05,564.54a1.47,1.47,0,0,1-.36,0L388,550.38a1.5,1.5,0,1,1,.72-2.91l56.7,14.12a1.5,1.5,0,0,1-.36,2.95Z" style="fill:#56cee2"/><path d="M445.05,582.2a1.47,1.47,0,0,1-.36,0L388,568a1.5,1.5,0,1,1,.72-2.91l56.7,14.13a1.5,1.5,0,0,1-.36,3Z" style="fill:#56cee2"/><path d="M286,652.82a1.5,1.5,0,0,1-.36-3l27.11-6.78V432.4a1.51,1.51,0,0,1,1.29-1.49l24.71-3.53a1.5,1.5,0,0,1,.43,3L315.7,433.7V644.26a1.49,1.49,0,0,1-1.14,1.45l-28.25,7.07A1.47,1.47,0,0,1,286,652.82Z" style="fill:#56cee2"/><path d="M398.94,705.79a1.5,1.5,0,0,1-1.5-1.5V623.07a1.5,1.5,0,0,1,1.5-1.5h49.44a1.5,1.5,0,0,1,0,3H400.44v79.72A1.5,1.5,0,0,1,398.94,705.79Z" style="fill:#56cee2"/><path d="M939.19,578.67H907.41a1.5,1.5,0,0,1-1.5-1.5v-60a1.5,1.5,0,0,1,1.5-1.5h31.78a1.5,1.5,0,0,1,1.5,1.5v60A1.5,1.5,0,0,1,939.19,578.67Zm-30.28-3h28.78v-57H908.91Z" style="fill:#56cee2"/><path d="M1172.24,742.86H1052.18a1.5,1.5,0,0,1-1.5-1.5V591.29a1.5,1.5,0,0,1,1.5-1.5h120.06a1.5,1.5,0,0,1,1.5,1.5V741.36A1.5,1.5,0,0,1,1172.24,742.86Zm-118.56-3h117.06V592.79H1053.68Z" style="fill:#56cee2"/><path d="M907.41,753.45a1.5,1.5,0,0,1-1.5-1.5V603.65a1.5,1.5,0,0,1,3,0V752A1.5,1.5,0,0,1,907.41,753.45Z" style="fill:#56cee2"/><path d="M918,753.45a1.5,1.5,0,0,1-1.5-1.5V603.65a1.5,1.5,0,0,1,3,0V752A1.5,1.5,0,0,1,918,753.45Z" style="fill:#56cee2"/><path d="M928.6,753.45a1.5,1.5,0,0,1-1.5-1.5V603.65a1.5,1.5,0,0,1,3,0V752A1.5,1.5,0,0,1,928.6,753.45Z" style="fill:#56cee2"/><path d="M939.19,753.45a1.5,1.5,0,0,1-1.5-1.5V603.65a1.5,1.5,0,0,1,3,0V752A1.5,1.5,0,0,1,939.19,753.45Z" style="fill:#56cee2"/><path d="M949.78,753.45a1.5,1.5,0,0,1-1.5-1.5V603.65a1.5,1.5,0,1,1,3,0V752A1.5,1.5,0,0,1,949.78,753.45Z" style="fill:#56cee2"/><path d="M960.37,753.45a1.5,1.5,0,0,1-1.5-1.5V603.65a1.5,1.5,0,0,1,3,0V752A1.5,1.5,0,0,1,960.37,753.45Z" style="fill:#56cee2"/><path d="M971,753.45a1.5,1.5,0,0,1-1.5-1.5V603.65a1.5,1.5,0,1,1,3,0V752A1.5,1.5,0,0,1,971,753.45Z" style="fill:#56cee2"/><path d="M981.56,753.45a1.5,1.5,0,0,1-1.5-1.5V603.65a1.5,1.5,0,0,1,3,0V752A1.5,1.5,0,0,1,981.56,753.45Z" style="fill:#56cee2"/><path d="M1338.19,744.63h-38.84a1.5,1.5,0,0,1-1.5-1.5V563a1.5,1.5,0,0,1,1.5-1.5h38.84a1.5,1.5,0,0,1,1.5,1.5V743.13A1.5,1.5,0,0,1,1338.19,744.63Zm-37.34-3h35.84V564.54h-35.84Z" style="fill:#56cee2"/><path d="M889.75,585.73a1.5,1.5,0,0,1-1.5-1.5V506.55a1.5,1.5,0,0,1,1.5-1.5h9.1V492.42a1.5,1.5,0,0,1,1.5-1.5h10.59a1.5,1.5,0,0,1,0,3h-9.09v12.63a1.5,1.5,0,0,1-1.5,1.5h-9.1v76.18A1.5,1.5,0,0,1,889.75,585.73Z" style="fill:#56cee2"/><path d="M737.92,691.66a1.5,1.5,0,0,1-1.5-1.5V652.82H709.67a1.5,1.5,0,0,1-1.5-1.5V580.7a1.5,1.5,0,0,1,3,0v69.12h26.75a1.5,1.5,0,0,1,1.5,1.5v38.84A1.5,1.5,0,0,1,737.92,691.66Z" style="fill:#56cee2"/><circle cx="1218.14" cy="121.67" r="51.2" style="fill:#253494"/><path d="M1166.94,121.67a51.2,51.2,0,0,0,51.2,51.2s-19.14-19.87-19-49.44c.15-32.45,19-53,19-53A51.2,51.2,0,0,0,1166.94,121.67Z" style="fill:#56cee2"/><circle cx="974.5" cy="128.73" r="5.3" style="fill:#41b6c4"/><circle cx="1334.66" cy="217" r="5.3" style="fill:#2c7fb8"/><circle cx="1338.19" cy="54.58" r="5.3" style="fill:#56cee2"/><circle cx="1052.18" cy="54.58" r="5.3" style="fill:#2c7fb8"/><circle cx="1048.65" cy="255.85" r="5.3" style="fill:#2c7fb8"/><circle cx="1168.7" cy="301.75" r="5.3" style="fill:#56cee2"/><circle cx="1115.74" cy="171.1" r="5.3" style="fill:#56cee2"/><circle cx="1373.5" cy="315.87" r="5.3" style="fill:#41b6c4"/><circle cx="879.16" cy="231.13" r="5.3" style="fill:#41b6c4"/><circle cx="769.7" cy="54.58" r="5.3" style="fill:#56cee2"/><circle cx="119.99" cy="125.2" r="44.14" style="fill:#f8be4b"/><g style="opacity:0.6"><path d="M263,114c2-33-75-46-82-7-27-26-117,47-5,56,28,2.25,95,13,114-8C309.56,133.38,289,113,263,114Z" style="fill:#f2f2f2"/></g><path d="M213.8,268.74c.06-5.52.46-19.07,2.86-26.26-17.65-1.36-23.78,17.07-23.79,28.77C198.5,267.38,208.13,268,213.8,268.74Z" style="fill:#fff"/><path d="M1188.34,239.06c-2.77-1.66-9.16-.86-10.52,1,0,0,2-29,1.36-29.07-3.86-.74-15,4.09-18,10.74a42.88,42.88,0,0,0-3.9,19.29,5.81,5.81,0,0,1-3.06,5.72c-6.3,3.39-14.2.82-21.3,0a18.13,18.13,0,0,1,.06,12.12,40.77,40.77,0,0,1,24.35-5.05c4.12.44,19.48,1.34,22.68-1.3,1.47-1.21,4-2.8,5.58-3.86a8.25,8.25,0,0,1,8.38-.35C1193.36,244.19,1191.44,240.93,1188.34,239.06Z" style="fill:#fff"/><path d="M965.32,288.74c-1.09-2.47.86-5.42-.92-7.46s-21.74-10.51-29.7-11.21c2.56,5.53,10.7,7.92,11.11,14,.12,1.89-.6,3.75-.65,5.65s1,4.13,2.88,4.28a34.85,34.85,0,0,1-19.61,5.2,29.82,29.82,0,0,1,2.29,10.33,36.8,36.8,0,0,1,14-6.82,106.26,106.26,0,0,0,19.77.06c2.22-.22,4.55-.27,6.5-1.35s3.33-3.19,5.13-4.65,4.72-2.15,6.26-.41C980.17,290.42,971.9,286,965.32,288.74Z" style="fill:#fff"/><path d="M1035.33,164.28a55.45,55.45,0,0,0-5.72-4l-.07,0a9.32,9.32,0,0,1,5.66.48c-.91-5.83-4.57-8-10.41-8.84-6.65-.92-14.3.29-19.69,4.3S994,166,987.3,166.31c-.69,3.46-1.38,8.28-2.06,11.74,0,0,8.11-6,10.89-7.92,1.19-.82,3.77-1.62,5.07-2.32-1.06,3.62-1.38,7.17.3,10.33,1.82,3.43,4.53,6.29,7.21,9.1,3.47,3.64,8.31,8.65,11.79,12.3,2.37-.51,1.62-13.49,1.65-16.53.06-6.42,0-13.12-2.45-19,.86-.37,1.73-.76,2.61-1.16a122,122,0,0,0,18.06,6C1038.06,167.15,1036.89,165.53,1035.33,164.28Z" style="fill:#fff"/><path d="M226.74,282.78c0-7.19-8.79-9.16-11.52-10.07-4.32-1.44-15.83-1.44-23,2.88-7.2,1.43-13-4.32-18.71-4.32-5,4.84,0,23,2.88,25.91,2.87-2.88,11.75-12.39,15.83-10.08,1.44,10.08,1.44,41.75,25.91,37.43,0-11.52-8.18-30.23-2.88-38.87C217,282.75,223.86,282.78,226.74,282.78Z" style="fill:#fff"/><path d="M381.19,279.85c-14.4-1.44-30.23,5.75-36,8.63-4.32,0-11.52-1.44-14.4,0,2.88,2.88,4.32,2.88,7.2,4.32V300c2.88,0,6.58-5.16,10.08-5.76,5-.85,18.17,2.81,23,1.44,3-.84,8.62-6.09,11.51-7.2,1.69-.64,4.32,0,7.2,0C386.94,282.73,384.27,280.15,381.19,279.85Z" style="fill:#fff"/><path d="M424.88,191.23s5.76-18.71-1.44-27.35c-10.08,5.76-17.27,27.35-21.59,37.43-2.63,2-10.27.94-13,2.88-1.44,2.88-4.32,7.2-4.32,11.52,4.32,1.44,9.44-6.79,13-7.2,4.3-.51,13.05,2.42,17.27,1.44s10.73-6.41,14.4-10.08c2.88-1.44,4.32-1.44,8.63-1.44C435,189.79,424.88,191.23,424.88,191.23Z" style="fill:#fff"/><path d="M408.27,178.18c-1.33-3.25-4.12-7.1-6.42-7.1-2.88,0-5.48,7.68-5.76,10.08-.49,4.07.92,12.73,4,16.07C401.61,193.69,406,183.17,408.27,178.18Z" style="fill:#fff"/><path d="M1157.05,257.3a42,42,0,0,0,9.16,4.1c3.86.83,6.9-1.53,8.55-3.66-1.15.11-2.64.18-4.58.18C1167.09,257.92,1162.85,257.74,1157.05,257.3Z" style="fill:#fff"/></svg>