<?xml version="1.0" encoding="UTF-8"?>
<svg width="259px" height="259px" viewBox="0 0 259 259" version="1.1" xmlns="http://www.w3.org/2000/svg" xmlns:xlink="http://www.w3.org/1999/xlink">
    <!-- Generator: Sketch 49 (51002) - http://www.bohemiancoding.com/sketch -->
    <title>join</title>
    <desc>Created with Sketch.</desc>
    <defs></defs>
    <g id="join" stroke="none" stroke-width="1" fill="none" fill-rule="evenodd">
        <g id="icon/society" transform="translate(43.000000, 46.000000)">
            <g id="Group-44" transform="translate(61.000000, 43.000000)">
                <polygon id="Fill-133" fill="#FFFFFF" points="52.4421053 42 26.2210526 56 0 42 0 14 26.2210526 0 52.4421053 14"></polygon>
                <polygon id="Fill-297" fill="#CCE7FF" points="46.1989975 38.8705882 26.2210526 49.8823529 6.24310777 38.8705882 0 41.9294118 26.2210526 56 52.4421053 41.9294118"></polygon>
                <polyline id="Stroke-753" stroke="#253494" stroke-width="2" stroke-linecap="round" stroke-linejoin="round" points="14.791363 34.2588235 19.8712251 38.8705882 32.5708802 38.8705882 37.6507422 34.2588235"></polyline>
                <polyline id="Stroke-754" stroke="#253494" stroke-width="2" stroke-linecap="round" stroke-linejoin="round" points="11.4296896 22.4 16.4721997 18.4470588 21.5147099 22.4"></polyline>
                <polyline id="Stroke-755" stroke="#253494" stroke-width="2" stroke-linecap="round" stroke-linejoin="round" points="30.9273954 22.4 35.9699055 18.4470588 41.0124157 22.4"></polyline>
                <polygon id="Stroke-756" stroke="#253494" stroke-width="2" stroke-linecap="round" stroke-linejoin="round" points="52.4421053 42 26.2210526 56 0 42 0 14 26.2210526 0 52.4421053 14"></polygon>
            </g>
            <g id="Group-44-Copy-2" transform="translate(32.000000, 89.000000)">
                <polygon id="Fill-133" fill="#FFFFFF" points="43.4133333 33.3984375 21.7066667 44.53125 0 33.3984375 0 11.1328125 21.7066667 0 43.4133333 11.1328125"></polygon>
                <polygon id="Fill-297" fill="#CCE7FF" points="38.2450794 31.171875 21.7066667 39.7600446 5.16825397 31.171875 0 33.5574777 21.7066667 44.53125 43.4133333 33.5574777"></polygon>
                <polyline id="Stroke-753" stroke="#253494" stroke-width="2" stroke-linecap="round" stroke-linejoin="round" points="12.6293333 27.4609375 16.8391111 31.171875 27.3635556 31.171875 31.5733333 27.4609375"></polyline>
                <polyline id="Stroke-754" stroke="#253494" stroke-width="2" stroke-linecap="round" stroke-linejoin="round" points="9.472 17.8125 13.8133333 14.84375 18.1546667 17.8125"></polyline>
                <polyline id="Stroke-755" stroke="#253494" stroke-width="2" stroke-linecap="round" stroke-linejoin="round" points="25.2586667 17.8125 29.6 14.84375 33.9413333 17.8125"></polyline>
                <polygon id="Stroke-756" stroke="#253494" stroke-width="2" stroke-linecap="round" stroke-linejoin="round" points="43.4133333 33.3984375 21.7066667 44.53125 0 33.3984375 0 11.1328125 21.7066667 0 43.4133333 11.1328125"></polygon>
            </g>
            <g id="Group-44-Copy-4" transform="translate(99.000000, 89.000000)">
                <polygon id="Fill-133" fill="#FFFFFF" points="42.4266667 33.3984375 21.2133333 44.53125 0 33.3984375 0 11.1328125 21.2133333 0 42.4266667 11.1328125"></polygon>
                <polygon id="Fill-297" fill="#CCE7FF" points="37.375873 30.9099265 21.2133333 39.6664916 5.05079365 30.9099265 0 33.3423057 21.2133333 44.53125 42.4266667 33.3423057"></polygon>
                <polyline id="Stroke-753" stroke="#253494" stroke-width="2" stroke-linecap="round" stroke-linejoin="round" points="11.9664957 27.2426471 16.0762013 30.9099265 26.3504653 30.9099265 30.4601709 27.2426471"></polyline>
                <polyline id="Stroke-754" stroke="#253494" stroke-width="2" stroke-linecap="round" stroke-linejoin="round" points="9.24683761 17.8125 13.3263248 14.6691176 17.405812 17.8125"></polyline>
                <polyline id="Stroke-755" stroke="#253494" stroke-width="2" stroke-linecap="round" stroke-linejoin="round" points="25.0208547 17.8125 29.1003419 14.6691176 33.1798291 17.8125"></polyline>
                <polygon id="Stroke-756" stroke="#253494" stroke-width="2" stroke-linecap="round" stroke-linejoin="round" points="42.4266667 33.3984375 21.2133333 44.53125 0 33.3984375 0 11.1328125 21.2133333 0 42.4266667 11.1328125"></polygon>
            </g>
            <g id="Group" transform="translate(34.000000, 0.000000)">
                <polygon id="Fill-133" fill="#FFFFFF" points="43.4133333 33.5778061 21.7066667 44.7704082 0 33.5778061 0 11.192602 21.7066667 0 43.4133333 11.192602"></polygon>
                <polygon id="Fill-297" fill="#CCE7FF" points="38.2450794 30.8418367 21.7066667 39.7959184 5.16825397 30.8418367 0 33.3290816 21.7066667 44.7704082 43.4133333 33.3290816"></polygon>
                <polyline id="Stroke-753" stroke="#253494" stroke-width="2" stroke-linecap="round" stroke-linejoin="round" points="12.4038095 27.8571429 16.5384127 31.8367347 26.8749206 31.8367347 31.0095238 27.8571429"></polyline>
                <polyline id="Stroke-754" stroke="#253494" stroke-width="2" stroke-linecap="round" stroke-linejoin="round" points="9.30285714 17.9081633 13.4374603 14.9234694 17.5720635 17.9081633"></polyline>
                <polyline id="Stroke-755" stroke="#253494" stroke-width="2" stroke-linecap="round" stroke-linejoin="round" points="25.8412698 17.9081633 29.975873 14.9234694 34.1104762 17.9081633"></polyline>
                <polygon id="Stroke-756" stroke="#253494" stroke-width="2" stroke-linecap="round" stroke-linejoin="round" points="43.4133333 33.5778061 21.7066667 44.7704082 0 33.5778061 0 11.192602 21.7066667 0 43.4133333 11.192602"></polygon>
            </g>
            <g id="Group-2" transform="translate(99.000000, 0.000000)">
                <polygon id="Fill-133" fill="#FFFFFF" points="42.4266667 33.5778061 21.2133333 44.7704082 0 33.5778061 0 11.192602 21.2133333 0 42.4266667 11.192602"></polygon>
                <polygon id="Fill-297" fill="#CCE7FF" points="37.375873 31.0759304 21.2133333 39.8795232 5.05079365 31.0759304 0 33.5213728 21.2133333 44.7704082 42.4266667 33.5213728"></polygon>
                <polyline id="Stroke-753" stroke="#253494" stroke-width="2" stroke-linecap="round" stroke-linejoin="round" points="11.9664957 27.3889556 16.0762013 31.0759304 26.3504653 31.0759304 30.4601709 27.3889556"></polyline>
                <polyline id="Stroke-754" stroke="#253494" stroke-width="2" stroke-linecap="round" stroke-linejoin="round" points="9.24683761 17.9081633 13.3263248 14.7478992 17.405812 17.9081633"></polyline>
                <polyline id="Stroke-755" stroke="#253494" stroke-width="2" stroke-linecap="round" stroke-linejoin="round" points="25.0208547 17.9081633 29.1003419 14.7478992 33.1798291 17.9081633"></polyline>
                <polygon id="Stroke-756" stroke="#253494" stroke-width="2" stroke-linecap="round" stroke-linejoin="round" points="42.4266667 33.5778061 21.2133333 44.7704082 0 33.5778061 0 11.192602 21.2133333 0 42.4266667 11.192602"></polygon>
            </g>
            <path d="M7.86319884,64.7329203 L11.704762,62.8341578 L11.704762,66.6316828 C14.0048303,65.3189966 13.7580037,65.756063 15.5463247,64.7329203 L15.5463247,68.530594 L19.3878879,68.530594 C17.9712342,73.7691441 10.9341205,78.2309683 6.73241315,80.9604393 C12.2397678,80.7471855 28.3200105,82.3019757 33.9176654,76.4990613 C39.5153053,70.6961469 35.4279573,63.1149272 40.9027651,61.4884575 C41.6457834,61.267768 44.4897082,61.6282473 46,61.6282473 C44.4897082,60.1411213 44.9153084,58.3620724 44.4897082,57.1664231 C42.9596164,50.7131885 34.2244661,52.7597713 30.9925171,57.9434465 L28.8117162,53.8746697 C22.9535812,42.9448883 6.1499087,52.9003047 0,59.3930969 C0.900360423,59.4525819 2.10086118,59.0370789 4.02163522,59.0370789 L4.02163522,62.8346039 L7.86319884,60.9358414 L7.86319884,64.7333664" id="path3799" stroke="#253494" stroke-width="2" fill="#CCE7FF" stroke-linecap="round" stroke-linejoin="round"></path>
            <path d="M68.8631988,150.73292 L72.704762,148.834158 L72.704762,152.631683 C75.0048303,151.318997 74.7580037,151.756063 76.5463247,150.73292 L76.5463247,154.530594 L80.3878879,154.530594 C78.9712342,159.769144 71.9341205,164.230968 67.7324131,166.960439 C73.2397678,166.747185 89.3200105,168.301976 94.9176654,162.499061 C100.515305,156.696147 96.4279573,149.114927 101.902765,147.488457 C102.645783,147.267768 105.489708,147.628247 107,147.628247 C105.489708,146.141121 105.915308,144.362072 105.489708,143.166423 C103.959616,136.713188 95.2244661,138.759771 91.9925171,143.943446 L89.8117162,139.87467 C83.9535812,128.944888 67.1499087,138.900305 61,145.393097 C61.9003604,145.452582 63.1008612,145.037079 65.0216352,145.037079 L65.0216352,148.834604 L68.8631988,146.935841 L68.8631988,150.733366" id="path3799-copy" stroke="#253494" stroke-width="2" fill="#CCE7FF" stroke-linecap="round" stroke-linejoin="round"></path>
            <path d="M134.863199,64.7329203 L138.704762,62.8341578 L138.704762,66.6316828 C141.00483,65.3189966 140.758004,65.756063 142.546325,64.7329203 L142.546325,68.530594 L146.387888,68.530594 C144.971234,73.7691441 137.934121,78.2309683 133.732413,80.9604393 C139.239768,80.7471855 155.32001,82.3019757 160.917665,76.4990613 C166.515305,70.6961469 162.427957,63.1149272 167.902765,61.4884575 C168.645783,61.267768 171.489708,61.6282473 173,61.6282473 C171.489708,60.1411213 171.915308,58.3620724 171.489708,57.1664231 C169.959616,50.7131885 161.224466,52.7597713 157.992517,57.9434465 L155.811716,53.8746697 C149.953581,42.9448883 133.149909,52.9003047 127,59.3930969 C127.90036,59.4525819 129.100861,59.0370789 131.021635,59.0370789 L131.021635,62.8346039 L134.863199,60.9358414 L134.863199,64.7333664" id="path3799-copy-2" stroke="#253494" stroke-width="2" fill="#CCE7FF" stroke-linecap="round" stroke-linejoin="round" transform="translate(150.000000, 65.000000) scale(-1, 1) translate(-150.000000, -65.000000) "></path>
        </g>
    </g>
</svg>