<svg xmlns="http://www.w3.org/2000/svg" viewBox="0 0 425 55"><title>title</title><path d="M92.58,32.72H86.27L84.76,37H82.12l6-16.8h2.62l6,16.8H94.1Zm-.81-2.33-2.33-6.6-2.33,6.6Zm9-7.73H95.94V20.21h12.29v2.45h-4.85V37h-2.61Zm9.72-2.45h2.61V34.66h7.37V37h-10ZM131.2,32.72h-6.31L123.38,37h-2.64l6-16.8h2.61l6,16.8h-2.67Zm-.82-2.33-2.32-6.6-2.33,6.6Zm7-10.18h2.69L147.9,32V20.21h2.64V37h-2.2L140,24.48V37h-2.62Zm20.21,2.45h-4.82V20.21h12.28v2.45h-4.84V37H157.6Zm17.11,10.06H168.4L166.89,37h-2.64l6-16.8h2.61l6,16.8h-2.67Zm-.81-2.33-2.33-6.6-2.33,6.6ZM195,32.72h-6.31L187.17,37h-2.64l6-16.8h2.61l6,16.8H196.5Zm-.81-2.33-2.33-6.6-2.33,6.6Zm13.39,7a6.59,6.59,0,0,1-5.21-2,8,8,0,0,1-1.75-5.51V20.21h2.61v9a8.2,8.2,0,0,0,.92,4.23c.6,1,1.75,1.51,3.43,1.51s2.82-.5,3.43-1.51a8.2,8.2,0,0,0,.91-4.23V20.21h2.62v9.65a8.08,8.08,0,0,1-1.75,5.51A6.6,6.6,0,0,1,207.57,37.35ZM218.1,20.21h6.24a9.06,9.06,0,0,1,4.32,1,7.19,7.19,0,0,1,3,2.9,9.14,9.14,0,0,1,1,4.49,9.11,9.11,0,0,1-1,4.49,7.19,7.19,0,0,1-3,2.9,9,9,0,0,1-4.32,1H218.1Zm6.24,14.45a5.08,5.08,0,0,0,4-1.62,6.57,6.57,0,0,0,1.4-4.43,6.57,6.57,0,0,0-1.4-4.43,5.08,5.08,0,0,0-4-1.62h-3.62v12.1Zm17.91,2.69a6.59,6.59,0,0,1-5.21-2,8,8,0,0,1-1.75-5.51V20.21h2.61v9a8.2,8.2,0,0,0,.92,4.23c.6,1,1.75,1.51,3.43,1.51s2.82-.5,3.43-1.51a8.2,8.2,0,0,0,.91-4.23V20.21h2.62v9.65a8.08,8.08,0,0,1-1.75,5.51A6.6,6.6,0,0,1,242.25,37.35Zm19.32-9.51A4.32,4.32,0,0,1,264,29.38a4.61,4.61,0,0,1,.83,2.83,4.48,4.48,0,0,1-1.44,3.52,5.77,5.77,0,0,1-4,1.28h-6.63V20.21h5.74a5.53,5.53,0,0,1,3.59,1,3.77,3.77,0,0,1,1.23,3.05,4.78,4.78,0,0,1-.45,2.14A3.33,3.33,0,0,1,261.57,27.84ZM255.4,27h2.76a3,3,0,0,0,1.9-.51,2,2,0,0,0,.64-1.72,2.09,2.09,0,0,0-.64-1.74,3,3,0,0,0-1.9-.52H255.4Zm3.7,7.63a3.29,3.29,0,0,0,2.16-.64,2.42,2.42,0,0,0,.76-2c0-1.77-1-2.66-2.92-2.66h-3.7v5.28Zm15.6,2.69a8.43,8.43,0,0,1-4.28-1.08,7.74,7.74,0,0,1-2.94-3.06,9.55,9.55,0,0,1-1.06-4.6A9.54,9.54,0,0,1,267.48,24,7.74,7.74,0,0,1,270.42,21,9,9,0,0,1,279,21,7.61,7.61,0,0,1,281.91,24,9.54,9.54,0,0,1,283,28.61a9.56,9.56,0,0,1-1.07,4.6A7.61,7.61,0,0,1,279,36.27,8.39,8.39,0,0,1,274.7,37.35Zm0-2.55a5.39,5.39,0,0,0,3-.8,5,5,0,0,0,1.86-2.21,8.47,8.47,0,0,0,0-6.36,5.1,5.1,0,0,0-1.86-2.21,6.08,6.08,0,0,0-6,0,5.19,5.19,0,0,0-1.87,2.21,8.34,8.34,0,0,0,0,6.36A5.13,5.13,0,0,0,271.68,34,5.4,5.4,0,0,0,274.7,34.8Zm11.08-14.59h2.69L296.3,32V20.21h2.64V37h-2.21L288.4,24.48V37h-2.62Zm27.15,17.14a14.19,14.19,0,0,1-3-.35,11.11,11.11,0,0,1-2.48-.8l.33-2.76a18.51,18.51,0,0,0,2.76,1,10.45,10.45,0,0,0,2.88.42,4.27,4.27,0,0,0,2.36-.55,1.88,1.88,0,0,0,.84-1.68,2.08,2.08,0,0,0-.45-1.38,3.51,3.51,0,0,0-1.28-.93c-.56-.25-1.38-.56-2.45-.91a14.7,14.7,0,0,1-2.63-1.07,4.67,4.67,0,0,1-1.68-1.5,4.09,4.09,0,0,1-.63-2.35A4.14,4.14,0,0,1,309,21.16a6.88,6.88,0,0,1,4.47-1.28,12.36,12.36,0,0,1,2.86.32,14.05,14.05,0,0,1,2.47.8l-.29,2.72a14.28,14.28,0,0,0-2.65-1.07,9.36,9.36,0,0,0-2.53-.35,4.3,4.3,0,0,0-2.3.53,1.74,1.74,0,0,0-.84,1.58,1.88,1.88,0,0,0,.4,1.24,3.37,3.37,0,0,0,1.14.83,18.86,18.86,0,0,0,2.1.76,11.54,11.54,0,0,1,4.23,2.07,4.13,4.13,0,0,1,1.37,3.26A4.34,4.34,0,0,1,317.91,36Q316.37,37.35,312.93,37.35Zm16.44,0a8.36,8.36,0,0,1-4.27-1.08,7.61,7.61,0,0,1-2.94-3.06,9.44,9.44,0,0,1-1.07-4.6A9.43,9.43,0,0,1,322.16,24,7.61,7.61,0,0,1,325.1,21a9,9,0,0,1,8.54,0A7.61,7.61,0,0,1,336.58,24a9.54,9.54,0,0,1,1.07,4.59,9.56,9.56,0,0,1-1.07,4.6,7.61,7.61,0,0,1-2.94,3.06A8.39,8.39,0,0,1,329.37,37.35Zm0-2.55a5.37,5.37,0,0,0,3-.8,5,5,0,0,0,1.86-2.21,7.65,7.65,0,0,0,.62-3.18,7.71,7.71,0,0,0-.62-3.18,5.1,5.1,0,0,0-1.86-2.21,6.06,6.06,0,0,0-6,0,5.14,5.14,0,0,0-1.88,2.21,8.34,8.34,0,0,0,0,6.36A5.08,5.08,0,0,0,326.36,34,5.34,5.34,0,0,0,329.37,34.8ZM348,37.35a8.89,8.89,0,0,1-4.41-1.08,7.65,7.65,0,0,1-3-3.06,9.34,9.34,0,0,1-1.09-4.6A9.23,9.23,0,0,1,340.56,24,7.81,7.81,0,0,1,343.64,21a9,9,0,0,1,4.45-1.08,10.36,10.36,0,0,1,2.39.26,9,9,0,0,1,2,.72l-.26,2.45a10.14,10.14,0,0,0-4.18-1,5.77,5.77,0,0,0-3.13.82A5.2,5.2,0,0,0,343,25.37a7.62,7.62,0,0,0-.66,3.24,7.56,7.56,0,0,0,.65,3.24,5,5,0,0,0,1.92,2.23,5.54,5.54,0,0,0,3.09.82,9,9,0,0,0,2.19-.25,12.14,12.14,0,0,0,2.06-.73l.26,2.47A10.84,10.84,0,0,1,348,37.35Zm7.18-17.14h2.61V37h-2.61Zm6.38,0H372v2.45h-7.83V27h6.15v2.45h-6.15v5.11h8V37H361.55Zm16.73,2.45h-4.82V20.21h12.28v2.45H380.9V37h-2.62Zm22-2.45-5.9,9.72V37h-2.62V29.93l-5.93-9.72h2.93l4.3,7.3,4.29-7.3Z" style="fill:#f0f3f5"/><polygon points="66.61 16.77 65.94 23.62 55.2 35.27 49.5 35.27 47.31 41.56 47.31 50.25 39.6 47.85 48.49 30.27 25 15.66 42.62 18.25 34.06 4.75 57.38 18.62 64.26 10.11 67.45 10.11 75 13.81 66.61 16.77" style="fill:none;stroke:#fff;stroke-width:2px"/></svg>