<svg width="259" height="259" xmlns="http://www.w3.org/2000/svg" style="background:#e1e4f0">
  <g fill="none" fill-rule="evenodd">
    <path fill="#FFF" d="M150.391 63v58.074l-23.304-23.236-23.304 23.225V144.3h-29.13L63 161.707h5.826v29.031H197V63z"/>
    <path fill="#CCE7FF" d="M80.533 190.738v-17.532h11.27v17.532M139.393 133.13s-23.795 17.545-23.795 17.534c0-.012 23.795 0 23.795 0V133.13zM139.393 161.935s-23.795 17.544-23.795 17.532c0-.011 23.795 0 23.795 0v-17.532zM197 63l-46.336 127.738H197z"/>
    <path stroke="#253494" stroke-width="2" stroke-linecap="round" stroke-linejoin="round" d="M74.808 144.402L63 161.935h41.327v-17.533zM104.327 190.738v-69.504l23.168-23.169 23.169 23.18v69.493M150.664 121.063V63H197v127.738M69.262 161.935v28.803M104.327 121.86h46.337M168.196 74.271v11.271M179.467 74.271v11.271M168.196 98.065v11.271M179.467 98.065v11.271M168.196 121.86v11.27M179.467 121.86v11.27M168.196 144.402v11.27M179.467 144.402v11.27"/>
    <path stroke="#253494" stroke-width="2" stroke-linecap="round" stroke-linejoin="round" d="M115.598 150.664h23.795V133.13h-23.795zM115.598 179.467h23.795v-17.532h-23.795zM168.196 168.196v11.271M179.467 168.196v11.271M80.533 190.738v-17.532h11.27v17.532M197 190.738H69.262"/>
  </g>
</svg>
