<svg width="1440" height="865" xmlns="http://www.w3.org/2000/svg">
  <g transform="translate(-1)" fill-rule="nonzero" fill="none">
    <path d="M273 271c-1.105 0-2-.772-2-1.725v-36.55c0-.953.895-1.725 2-1.725s2 .772 2 1.725v36.55c0 .953-.895 1.725-2 1.725zM567 211c-1.105 0-2-.77-2-1.72v-48.56c0-.95.895-1.72 2-1.72s2 .77 2 1.72v48.56c0 .95-.895 1.72-2 1.72zM1257 328c-1.105 0-2-.781-2-1.745v-94.51c0-.964.895-1.745 2-1.745s2 .781 2 1.745v94.51c0 .964-.895 1.745-2 1.745z" fill="#2C7FB8" opacity=".35"/>
    <path d="M1.516 865C.679 865 0 864.223 0 863.265V795.87c.002-.595.268-1.15.707-1.469l33.145-23.991V648.822c.006-.955.681-1.728 1.516-1.735h23.505V542.631c0-.958.678-1.735 1.515-1.735h19.948v-14.61c0-.959.678-1.736 1.516-1.736h20.089l1.596-12.805c.11-.855.75-1.49 1.506-1.492h16.32v-47.277c0-.959.678-1.736 1.515-1.736h57.095c.837 0 1.515.777 1.515 1.736v30.943h18.382V393.511c.003-.459.163-.899.444-1.226l45.938-52.587v-7.45c0-.46.16-.9.445-1.225l13.935-15.952 7.073-44.397c.128-.83.76-1.436 1.496-1.435h7.134c.783.008 1.433.693 1.506 1.585l3.516 44.305 13.814 15.917c.288.322.449.765.445 1.226v15.663l42.441 52.598c.252.317.396.728.405 1.157v34.888l44.745-3.945c.154-.029.311-.029.465 0l60.63 16.334c.674.183 1.155.862 1.173 1.654l3.537 210.695h18.401V650.8c0-.959.679-1.736 1.516-1.736h19.897V340.44c0-.829.513-1.54 1.223-1.7l16.613-3.807v-35.339c.004-.827.515-1.536 1.222-1.7l16.623-3.806v-31.29c0-.798.476-1.491 1.152-1.678l13.137-3.76v-27.207c0-.737.405-1.394 1.01-1.643l9.671-3.69v-11c0-.825.507-1.536 1.213-1.701l17.845-4.083c.197-.047.4-.047.597 0l17.835 4.083c.708.164 1.218.874 1.223 1.7v11.001l9.66 3.69c.608.246 1.013.905 1.01 1.643v27.242l13.138 3.76c.68.166 1.17.847 1.182 1.642v35.34l16.623 3.805c.708.165 1.218.874 1.223 1.7v35.502l13.136 3.76c.673.191 1.144.884 1.142 1.677v79.956h27.031c.837 0 1.516.777 1.516 1.735v88.135h19.867c.837 0 1.516.776 1.516 1.735v67.694h11.236V360.867c0-.66.324-1.264.84-1.561l6.295-3.598v-11.186c-.001-.797.475-1.49 1.152-1.677l13.136-3.76v-27.242c.003-.862.558-1.591 1.304-1.712l24.97-4.083c.307-.045.619.011.9.162l14.268 8.167c.514.297.839.901.838 1.561v23.436l13.48 7.681c.512.296.836.895.84 1.55v11.013l9.67 3.679c.607.253 1.011.914 1.01 1.654v10.515h29.083v-18.682c0-.958.679-1.735 1.516-1.735h9.185v-14.61c0-.959.679-1.735 1.516-1.735h12.753v-22.766c0-.878.572-1.618 1.334-1.723l28.537-4.084c.355-.05.713.05 1.01.278l10.712 8.167c.416.327.665.867.666 1.446v19.121l9.671 3.69c.608.246 1.013.905 1.01 1.643v15.27l13.43 7.692c.515.291.84.892.84 1.55v141.265h18.38v-10.515c0-.959.679-1.735 1.516-1.735h12.753V454.82c0-.958.678-1.735 1.516-1.735h46.382c.837 0 1.516.777 1.516 1.735v26.86h12.763c.837 0 1.515.777 1.515 1.736v26.848h19.887c.838 0 1.516.777 1.516 1.736v106.099l14.814-16.947v-130.01c0-.958.679-1.735 1.516-1.735h23.464v-55.444c0-.958.679-1.735 1.516-1.735h89.198c.837 0 1.516.777 1.516 1.735v100.385h16.33c.326-.001.645.116.91.335l14.268 12.262c.383.326.608.842.606 1.388v89.141l7.67 8.78v-257.22c.002-.798.476-1.493 1.152-1.689l27.395-7.831v-6.825c.003-.795.477-1.487 1.152-1.677l13.46-3.852 6.881-23.61c.21-.703.786-1.176 1.435-1.176.65 0 1.226.473 1.435 1.176l6.872 23.61 13.47 3.852c.67.195 1.14.885 1.142 1.677v11.082l16.896 7.739c.573.264.949.9.95 1.607v63.623h123.363c.837 0 1.516.777 1.516 1.735v118.141l17.724 48.689a1.948 1.948 0 0 1-.118 1.811c-.334.53-.9.8-1.464.699-.565-.102-1.03-.558-1.207-1.18l-17.765-49.047a1.848 1.848 0 0 1-.12-.66V440.21h-123.405c-.837 0-1.516-.777-1.516-1.735v-64.178l-16.885-7.738c-.596-.245-.998-.884-1.01-1.608v-10.897l-13.138-3.76c-.505-.151-.909-.587-1.07-1.156l-5.7-19.573-5.7 19.573c-.161.569-.565 1.005-1.07 1.156l-13.137 3.76v6.813c-.005.79-.474 1.479-1.142 1.678l-27.304 7.83v260.066c.003.702-.364 1.337-.93 1.608-.569.267-1.222.116-1.657-.381l-10.701-12.25a1.87 1.87 0 0 1-.445-1.227v-88.99l-13.258-11.383h-17.34c-.837 0-1.516-.777-1.516-1.735V415.698h-86.167v55.444c0 .959-.678 1.735-1.515 1.735h-23.465v128.98c-.002.46-.162.9-.444 1.227l-17.846 20.417c-.433.495-1.085.644-1.65.375-.567-.268-.936-.9-.937-1.601V513.723h-19.887c-.837 0-1.515-.777-1.515-1.735v-26.849h-12.783c-.838 0-1.516-.777-1.516-1.735v-26.86h-43.351v43.194c0 .958-.679 1.735-1.516 1.735h-12.753v10.515c0 .958-.678 1.735-1.515 1.735H914.96c-.837 0-1.516-.777-1.516-1.735V370.11l-13.43-7.693c-.511-.295-.835-.894-.839-1.55V345.83l-9.67-3.69c-.608-.246-1.013-.905-1.01-1.642v-19.55l-9.59-7.253-26.658 3.817v22.974c0 .958-.678 1.735-1.516 1.735H837.98v14.61c0 .958-.679 1.735-1.516 1.735h-9.186v18.636c0 .958-.678 1.735-1.515 1.735h-32.114c-.838 0-1.516-.777-1.516-1.735V366.2l-9.67-3.69c-.609-.246-1.014-.905-1.011-1.643v-11.186l-13.43-7.692c-.515-.291-.84-.893-.839-1.55v-23.437l-13.015-7.45-23.242 3.807v27.08c-.002.798-.476 1.493-1.152 1.689l-13.137 3.748v10.908c-.003.656-.327 1.255-.838 1.55l-6.296 3.598v223.604c0 .958-.679 1.735-1.516 1.735h-14.268c-.837 0-1.516-.777-1.516-1.735v-67.718h-19.877c-.837 0-1.516-.777-1.516-1.735v-88.135h-27.03c-.838 0-1.517-.776-1.517-1.735v-80.337l-13.136-3.748c-.676-.196-1.15-.891-1.152-1.69V305.1l-16.623-3.805c-.71-.16-1.222-.873-1.223-1.7v-35.41l-13.137-3.748c-.676-.195-1.15-.89-1.152-1.689v-27.334l-9.67-3.69c-.61-.25-1.014-.913-1.01-1.654V215.24l-16.33-3.736-16.32 3.736v10.828c0 .74-.404 1.4-1.01 1.654l-9.672 3.69v27.334c.003.797-.467 1.493-1.141 1.69l-13.137 3.747v31.326c0 .828-.513 1.54-1.223 1.7l-16.623 3.76v35.339c.004.826-.504 1.54-1.212 1.7l-16.623 3.806V650.87c0 .958-.679 1.735-1.516 1.735h-19.897v10.515c0 .958-.679 1.735-1.516 1.735h-21.403c-.827.007-1.504-.753-1.515-1.7l-3.547-211.053-59.287-15.964-46.18 4.06c-.42.05-.838-.115-1.142-.45a1.873 1.873 0 0 1-.486-1.273v-36.091l-42.441-52.599a1.928 1.928 0 0 1-.404-1.156v-15.617l-13.774-15.848a1.84 1.84 0 0 1-.434-1.075l-3.446-43.356h-4.487l-6.912 43.506a1.804 1.804 0 0 1-.424.925l-13.824 15.825v7.45c0 .46-.16.9-.444 1.226l-45.938 52.598v101.391c0 .959-.68 1.735-1.516 1.735h-21.413c-.837 0-1.516-.776-1.516-1.735v-30.943h-54.062v47.277c0 .958-.679 1.735-1.516 1.735h-16.522l-1.597 12.817c-.114.851-.753 1.48-1.505 1.48H83.367v14.61c0 .96-.678 1.736-1.515 1.736H61.904v104.456c0 .959-.679 1.736-1.516 1.736H36.884v120.801c.004.595-.26 1.15-.697 1.47L3.032 796.83v66.434c0 .46-.16.901-.444 1.227-.285.325-.67.508-1.072.508z" fill="#56CEE2" opacity=".35"/>
    <path d="M505 654c-1.105 0-2-.775-2-1.731V354.73c0-.956.895-1.731 2-1.731s2 .775 2 1.731V652.27c0 .956-.895 1.731-2 1.731zM513 654c-1.105 0-2-.775-2-1.731V354.73c0-.956.895-1.731 2-1.731s2 .775 2 1.731V652.27c0 .956-.895 1.731-2 1.731zM524 654c-1.105 0-2-.775-2-1.731V354.73c0-.956.895-1.731 2-1.731s2 .775 2 1.731V652.27c0 .956-.895 1.731-2 1.731zM535 674c-1.105 0-2-.774-2-1.73V354.73c0-.956.895-1.73 2-1.73s2 .774 2 1.73v317.54c0 .956-.895 1.73-2 1.73zM545 674c-1.105 0-2-.774-2-1.73V354.73c0-.956.895-1.73 2-1.73s2 .774 2 1.73v317.54c0 .956-.895 1.73-2 1.73zM586 777c-1.105 0-2-.777-2-1.734V354.734c0-.957.895-1.734 2-1.734s2 .777 2 1.734v420.532c0 .957-.895 1.734-2 1.734zM598 777c-1.105 0-2-.777-2-1.734V354.734c0-.957.895-1.734 2-1.734s2 .777 2 1.734v420.532c0 .957-.895 1.734-2 1.734zM607 728c-1.105 0-2-.777-2-1.734V354.734c0-.957.895-1.734 2-1.734s2 .777 2 1.734v371.532c0 .957-.895 1.734-2 1.734zM618 728c-1.105 0-2-.777-2-1.734V354.734c0-.957.895-1.734 2-1.734s2 .777 2 1.734v371.532c0 .957-.895 1.734-2 1.734zM631 728c-1.105 0-2-.777-2-1.734V354.734c0-.957.895-1.734 2-1.734s2 .777 2 1.734v371.532c0 .957-.895 1.734-2 1.734zM522 339c-1.105 0-2-.8-2-1.786v-29.428c0-.987.895-1.786 2-1.786s2 .8 2 1.786v29.428c0 .987-.895 1.786-2 1.786zM534 339c-1.105 0-2-.8-2-1.786v-29.428c0-.987.895-1.786 2-1.786s2 .8 2 1.786v29.428c0 .987-.895 1.786-2 1.786zM544 339c-1.105 0-2-.8-2-1.786v-29.428c0-.987.895-1.786 2-1.786s2 .8 2 1.786v29.428c0 .987-.895 1.786-2 1.786zM554 339c-1.105 0-2-.8-2-1.786v-29.428c0-.987.895-1.786 2-1.786s2 .8 2 1.786v29.428c0 .987-.895 1.786-2 1.786zM581 341c-1.105 0-2-.8-2-1.786v-29.428c0-.987.895-1.786 2-1.786s2 .8 2 1.786v29.428c-.007.984-.898 1.78-2 1.786zM593 341c-1.105 0-2-.8-2-1.786v-29.428c0-.987.895-1.786 2-1.786s2 .8 2 1.786v29.428c0 .987-.895 1.786-2 1.786zM605 341c-1.105 0-2-.8-2-1.786v-29.428c0-.987.895-1.786 2-1.786s2 .8 2 1.786v29.428c0 .987-.895 1.786-2 1.786zM616 341c-1.102-.006-1.993-.802-2-1.786v-29.428c0-.987.895-1.786 2-1.786s2 .8 2 1.786v29.428c0 .987-.895 1.786-2 1.786zM538 301c-1.105 0-2-.8-2-1.786v-29.428c0-.987.895-1.786 2-1.786s2 .8 2 1.786v29.428c0 .474-.21.928-.586 1.263A2.128 2.128 0 0 1 538 301zM547 301c-1.105 0-2-.8-2-1.786v-29.428c0-.987.895-1.786 2-1.786s2 .8 2 1.786v29.428c-.007.984-.898 1.78-2 1.786zM559 301c-1.105 0-2-.8-2-1.786v-29.428c0-.987.895-1.786 2-1.786s2 .8 2 1.786v29.428c0 .474-.21.928-.586 1.263A2.128 2.128 0 0 1 559 301zM576 301c-1.102-.006-1.993-.802-2-1.786v-29.428c0-.987.895-1.786 2-1.786s2 .8 2 1.786v29.428c0 .474-.21.928-.586 1.263A2.128 2.128 0 0 1 576 301zM586 301c-1.105 0-2-.8-2-1.786v-29.428c0-.987.895-1.786 2-1.786s2 .8 2 1.786v29.428c0 .474-.21.928-.586 1.263A2.128 2.128 0 0 1 586 301zM598 301c-1.105 0-2-.8-2-1.786v-29.428c0-.987.895-1.786 2-1.786s2 .8 2 1.786v29.428c0 .474-.21.928-.586 1.263A2.128 2.128 0 0 1 598 301zM548 236h4v20h-4zM555 236h4v20h-4zM576 236h4v20h-4zM583 236h4v20h-4zM767.583 401c-.848.033-1.557-.864-1.582-2.005-.026-1.141.642-2.094 1.49-2.128l57.872-4.863c.549-.047 1.075.304 1.38.92.304.616.341 1.403.097 2.066-.245.663-.733 1.1-1.282 1.147l-57.882 4.862h-.093zM914.41 385a1.336 1.336 0 0 1-.593-.146l-28.854-14.29c-.387-.182-.695-.544-.852-1.003a2.124 2.124 0 0 1 .024-1.425c.158-.456.464-.817.848-1.002a1.32 1.32 0 0 1 1.196.019l28.864 14.29c.683.329 1.072 1.188.927 2.046-.145.858-.783 1.472-1.52 1.462l-.04.049zM914.473 396a1.314 1.314 0 0 1-.594-.134l-28.9-14.336c-.52-.24-.888-.796-.964-1.452-.077-.657.151-1.31.596-1.71.444-.399 1.035-.48 1.545-.212l28.91 14.336c.67.34 1.047 1.192.904 2.042-.144.849-.77 1.461-1.497 1.466zM914.473 410a1.314 1.314 0 0 1-.594-.134l-28.9-14.336c-.52-.24-.888-.796-.964-1.452-.077-.657.151-1.31.596-1.71.444-.399 1.035-.48 1.545-.212l28.91 14.336c.67.34 1.047 1.192.904 2.042-.144.849-.77 1.461-1.497 1.466zM914.448 423a1.34 1.34 0 0 1-.593-.146l-28.89-14.29c-.389-.182-.697-.544-.854-1.003a2.121 2.121 0 0 1 .025-1.425c.157-.456.463-.817.848-1.002a1.323 1.323 0 0 1 1.198.019l28.86 14.338c.683.329 1.073 1.188.928 2.046-.145.858-.784 1.472-1.522 1.463zM914.473 436a1.498 1.498 0 0 1-.594-.134l-28.9-14.336c-.52-.24-.888-.796-.964-1.452-.077-.657.151-1.31.596-1.71.444-.399 1.035-.48 1.545-.212l28.91 14.336c.67.34 1.047 1.192.904 2.042-.144.85-.77 1.461-1.497 1.466zM914.473 446a1.314 1.314 0 0 1-.594-.134l-28.9-14.336c-.52-.24-.888-.796-.964-1.452-.077-.657.151-1.31.596-1.71.444-.399 1.035-.48 1.545-.212l28.91 14.336c.67.34 1.047 1.192.904 2.042-.144.849-.77 1.461-1.497 1.466zM914.45 458a1.335 1.335 0 0 1-.594-.146l-28.878-14.327c-.518-.24-.887-.795-.963-1.45-.077-.657.151-1.31.595-1.709.444-.399 1.035-.48 1.544-.212l28.888 14.326c.683.33 1.073 1.191.928 2.051-.145.86-.784 1.476-1.52 1.467zM914.45 471a1.335 1.335 0 0 1-.593-.146l-28.879-14.324c-.518-.24-.887-.796-.963-1.452-.077-.657.151-1.31.595-1.71.444-.399 1.035-.48 1.544-.212l28.889 14.336c.384.188.688.552.844 1.01.156.459.15.973-.016 1.426-.256.658-.812 1.077-1.421 1.072zM914.473 482.963a1.314 1.314 0 0 1-.594-.134l-28.9-14.3c-.52-.24-.888-.795-.964-1.451-.077-.657.151-1.31.596-1.71.444-.399 1.035-.48 1.545-.212l28.91 14.336c.67.34 1.047 1.192.904 2.042-.144.85-.77 1.461-1.497 1.466v-.037zM914.45 495a1.335 1.335 0 0 1-.594-.146l-28.878-14.327c-.518-.24-.887-.795-.963-1.45-.077-.657.151-1.31.595-1.709.444-.399 1.035-.48 1.544-.212l28.888 14.326c.683.33 1.073 1.191.928 2.051-.145.86-.784 1.476-1.52 1.467zM914.41 508a1.336 1.336 0 0 1-.593-.146l-28.854-14.29c-.387-.182-.695-.544-.852-1.003a2.124 2.124 0 0 1 .024-1.425c.158-.456.464-.817.848-1.002a1.32 1.32 0 0 1 1.196.019l28.864 14.29c.683.329 1.072 1.188.927 2.046-.145.858-.783 1.472-1.52 1.462l-.04.049zM1224 838c-1.105 0-2-.775-2-1.732V379.732c0-.957.895-1.732 2-1.732s2 .775 2 1.732v456.536c0 .957-.895 1.732-2 1.732zM1240 838c-1.105 0-2-.775-2-1.732V379.732c0-.957.895-1.732 2-1.732s2 .775 2 1.732v456.536c0 .957-.895 1.732-2 1.732zM1259 838c-1.105 0-2-.775-2-1.732V379.732c0-.957.895-1.732 2-1.732s2 .775 2 1.732v456.536c0 .957-.895 1.732-2 1.732zM1278 838c-1.105 0-2-.775-2-1.732V379.732c0-.957.895-1.732 2-1.732s2 .775 2 1.732v456.536c0 .957-.895 1.732-2 1.732zM767.584 417c-.85.033-1.558-.864-1.583-2.005-.026-1.141.642-2.094 1.49-2.128l57.877-4.862c.407-.038.808.145 1.114.507.306.362.491.874.515 1.421.053 1.14-.587 2.123-1.434 2.204l-57.887 4.862h-.092zM767.583 434c-.848.033-1.557-.864-1.582-2.005-.026-1.141.642-2.094 1.49-2.128l57.872-4.863c.549-.047 1.075.304 1.38.92.304.616.341 1.403.097 2.066-.245.663-.733 1.1-1.282 1.147l-57.882 4.862h-.093zM767.583 449c-.848.033-1.557-.864-1.582-2.005-.026-1.141.642-2.094 1.49-2.128l57.872-4.863c.549-.047 1.075.304 1.38.92.304.616.341 1.403.097 2.066-.245.663-.733 1.1-1.282 1.147l-57.882 4.862h-.093zM767.54 467c-.81.002-1.484-.839-1.538-1.923-.047-1.138.597-2.116 1.446-2.197l57.914-4.876c.849-.072 1.581.792 1.635 1.93.054 1.138-.591 2.118-1.44 2.19l-57.925 4.849-.092.027zM767.583 483c-.848.033-1.557-.864-1.582-2.005-.026-1.141.642-2.094 1.49-2.128l57.872-4.863c.549-.047 1.075.304 1.38.92.304.616.341 1.403.097 2.066-.245.663-.733 1.1-1.282 1.147l-57.882 4.862h-.093zM767.583 499c-.848.033-1.557-.864-1.582-2.005-.026-1.141.642-2.094 1.49-2.128l57.872-4.863c.549-.047 1.075.304 1.38.92.304.616.341 1.403.097 2.066-.245.663-.733 1.1-1.282 1.147l-57.882 4.862h-.093zM767.583 515c-.848.033-1.557-.864-1.582-2.005-.026-1.141.642-2.094 1.49-2.128l57.872-4.863c.549-.047 1.075.304 1.38.92.304.616.341 1.403.097 2.066-.245.663-.733 1.1-1.282 1.147l-57.882 4.862h-.093zM767.583 531.986c-.848.034-1.557-.862-1.582-2.001-.026-1.14.642-2.091 1.49-2.125l57.872-4.856c.549-.047 1.075.304 1.38.919.304.615.341 1.401.097 2.063-.245.662-.733 1.098-1.282 1.145L767.676 532l-.093-.014zM767.583 547c-.848.033-1.557-.863-1.582-2.002-.026-1.14.642-2.09 1.49-2.125l57.872-4.869c.849-.072 1.58.793 1.634 1.933.054 1.139-.59 2.121-1.44 2.193l-57.881 4.855-.093.014zM767.583 564c-.848.033-1.557-.864-1.582-2.005-.026-1.141.642-2.094 1.49-2.128l57.872-4.863c.549-.047 1.075.304 1.38.92.304.616.341 1.403.097 2.066-.245.663-.733 1.1-1.282 1.147l-57.882 4.862h-.093zM767.583 581c-.848.033-1.557-.864-1.582-2.005-.026-1.141.642-2.094 1.49-2.128l57.872-4.863c.549-.047 1.075.304 1.38.92.304.616.341 1.403.097 2.066-.245.663-.733 1.1-1.282 1.147l-57.882 4.862h-.093zM767.583 597c-.848.033-1.557-.863-1.582-2.002-.026-1.14.642-2.09 1.49-2.125l57.872-4.869c.849-.072 1.58.793 1.634 1.933.054 1.139-.59 2.121-1.44 2.193l-57.881 4.855-.093.014zM767.583 612.986c-.848.034-1.557-.862-1.582-2.001-.026-1.14.642-2.091 1.49-2.125l57.872-4.856c.549-.047 1.075.304 1.38.919.304.615.341 1.401.097 2.063-.245.662-.733 1.098-1.282 1.145L767.676 613l-.093-.014zM767.583 630c-.848.033-1.557-.863-1.582-2.002-.026-1.14.642-2.09 1.49-2.125l57.872-4.869c.549-.047 1.075.304 1.38.919.304.614.341 1.4.097 2.063-.245.661-.733 1.098-1.282 1.144l-57.882 4.855-.093.014zM767.583 644c-.848.033-1.557-.864-1.582-2.005-.026-1.141.642-2.094 1.49-2.128l57.872-4.863c.549-.047 1.075.304 1.38.92.304.616.341 1.403.097 2.066-.245.663-.733 1.1-1.282 1.147l-57.882 4.862h-.093zM767.583 663c-.848.033-1.557-.864-1.582-2.005-.026-1.141.642-2.094 1.49-2.128l57.872-4.863c.549-.047 1.075.304 1.38.92.304.616.341 1.403.097 2.066-.245.663-.733 1.1-1.282 1.147l-57.882 4.862h-.093zM767.583 678c-.848.033-1.557-.864-1.582-2.005-.026-1.141.642-2.094 1.49-2.128l57.872-4.863c.549-.047 1.075.304 1.38.92.304.616.341 1.403.097 2.066-.245.663-.733 1.1-1.282 1.147l-57.882 4.862h-.093zM767.583 694.986c-.848.034-1.557-.862-1.582-2.001-.026-1.14.642-2.091 1.49-2.125l57.872-4.856c.549-.047 1.075.304 1.38.919.304.615.341 1.401.097 2.063-.245.662-.733 1.098-1.282 1.145L767.676 695l-.093-.014zM767.583 711c-.848.033-1.557-.863-1.582-2.002-.026-1.14.642-2.09 1.49-2.125l57.872-4.869c.549-.047 1.075.304 1.38.919.304.614.341 1.4.097 2.063-.245.661-.733 1.098-1.282 1.144l-57.882 4.855-.093.014zM767.583 728c-.848.033-1.557-.863-1.582-2.002-.026-1.14.642-2.09 1.49-2.125l57.872-4.869c.849-.072 1.58.793 1.634 1.933.054 1.139-.59 2.121-1.44 2.193l-57.881 4.855-.093.014zM767.583 744c-.848.033-1.557-.864-1.582-2.005-.026-1.141.642-2.094 1.49-2.128l57.872-4.863c.549-.047 1.075.304 1.38.92.304.616.341 1.403.097 2.066-.245.663-.733 1.1-1.282 1.147l-57.882 4.862h-.093zM767.583 760c-.848.033-1.557-.864-1.582-2.005-.026-1.141.642-2.094 1.49-2.128l57.872-4.863c.549-.047 1.075.304 1.38.92.304.616.341 1.403.097 2.066-.245.663-.733 1.1-1.282 1.147l-57.882 4.862h-.093zM1184.462 598h-57.924c-.85 0-1.538-.776-1.538-1.733v-81.534c0-.957.688-1.733 1.538-1.733h57.924c.85 0 1.538.776 1.538 1.733v81.58c-.028.937-.706 1.681-1.538 1.687zm-56.386-3.466h54.848V516.42h-54.848v78.115zM259.423 682h-40.846c-.87 0-1.577-.776-1.577-1.734V410.82c-.003-.902.623-1.656 1.44-1.734l40.846-4.082a1.56 1.56 0 0 1 1.21.451c.324.331.507.797.504 1.284v273.527c0 .958-.706 1.734-1.577 1.734zm-39.268-3.469h37.69V408.635l-37.69 3.769v266.127zM113.512 638H78.488c-.822 0-1.488-.787-1.488-1.758v-74.484c0-.97.666-1.758 1.488-1.758h35.024c.822 0 1.488.787 1.488 1.758v74.484c0 .466-.157.913-.436 1.243-.279.33-.657.515-1.052.515zm-33.536-3.516h32.088v-70.968H79.976v70.968zM365.522 743h-35.034c-.822 0-1.488-.778-1.488-1.739V458.83c-.01-.903.57-1.666 1.34-1.762l35.023-4.057c.42-.053.84.107 1.15.44.31.331.486.798.487 1.287v286.524c0 .956-.66 1.733-1.478 1.739zm-33.545-3.478h32.056V456.673l-32.056 3.744v279.105zM50 718c-1.102-.006-1.993-.744-2-1.656v-50.688c0-.914.895-1.656 2-1.656s2 .742 2 1.656v50.699c-.007.91-.9 1.645-2 1.645zM63 718c-1.105 0-2-.742-2-1.656v-50.688c0-.914.895-1.656 2-1.656s2 .742 2 1.656v50.699c-.007.91-.9 1.645-2 1.645zM74 718c-1.105 0-2-.742-2-1.656v-50.688c0-.914.895-1.656 2-1.656s2 .742 2 1.656v50.699c-.007.91-.9 1.645-2 1.645zM83 718c-1.105 0-2-.742-2-1.656v-50.688c0-.914.895-1.656 2-1.656s2 .742 2 1.656v50.699c-.007.91-.9 1.645-2 1.645zM94 718c-1.105 0-2-.742-2-1.656v-50.688c0-.914.895-1.656 2-1.656s2 .742 2 1.656v50.699c-.007.91-.9 1.645-2 1.645zM104 733c-1.105 0-2-.779-2-1.74v-65.52c0-.961.895-1.74 2-1.74s2 .779 2 1.74v65.52c0 .961-.895 1.74-2 1.74zM116 733c-1.105 0-2-.779-2-1.74v-65.52c0-.961.895-1.74 2-1.74s2 .779 2 1.74v65.52c0 .961-.895 1.74-2 1.74zM125 733c-1.105 0-2-.779-2-1.74v-65.52c0-.961.895-1.74 2-1.74s2 .779 2 1.74v65.52c0 .961-.895 1.74-2 1.74zM138 749c-1.105 0-2-.775-2-1.732v-81.536c0-.957.895-1.732 2-1.732s2 .775 2 1.732v81.536c0 .957-.895 1.732-2 1.732zM147 749c-1.105 0-2-.775-2-1.732v-81.536c0-.957.895-1.732 2-1.732s2 .775 2 1.732v81.536c0 .957-.895 1.732-2 1.732zM158 749c-1.105 0-2-.775-2-1.732v-81.536c0-.957.895-1.732 2-1.732s2 .775 2 1.732v81.536c0 .957-.895 1.732-2 1.732zM169 718c-1.105 0-2-.742-2-1.656v-50.688c0-.914.895-1.656 2-1.656s2 .742 2 1.656v50.699c-.007.91-.9 1.645-2 1.645zM179 718c-1.105 0-2-.742-2-1.656v-50.688c0-.914.895-1.656 2-1.656s2 .742 2 1.656v50.699c-.007.91-.9 1.645-2 1.645zM443.482 471.988a1.384 1.384 0 0 1-.368 0l-57.892-15.697c-.55-.123-.994-.563-1.156-1.146a1.764 1.764 0 0 1 .376-1.65 1.45 1.45 0 0 1 1.515-.43l57.903 15.653c.74.212 1.221.984 1.129 1.809-.093.824-.732 1.448-1.497 1.46h-.01zM443.27 492.944a1.05 1.05 0 0 1-.367 0l-57.686-15.662c-.547-.123-.99-.562-1.151-1.144a1.76 1.76 0 0 1 .374-1.645 1.445 1.445 0 0 1 1.51-.428l57.696 15.607c.843.11 1.444.941 1.343 1.857-.101.916-.867 1.569-1.71 1.459l-.01-.044zM443.492 511.967a1.387 1.387 0 0 1-.368 0l-57.902-15.681c-.55-.124-.994-.563-1.156-1.145a1.759 1.759 0 0 1 .376-1.647 1.452 1.452 0 0 1 1.515-.429l57.902 15.67c.74.212 1.222.983 1.13 1.806-.093.823-.732 1.446-1.497 1.459v-.033zM443.27 531.944a1.056 1.056 0 0 1-.367-.056l-57.686-15.606c-.547-.123-.99-.562-1.151-1.144a1.76 1.76 0 0 1 .374-1.645 1.445 1.445 0 0 1 1.51-.428l57.696 15.607c.843.11 1.444.941 1.343 1.857-.101.916-.867 1.569-1.71 1.459l-.01-.044zM443.27 554.933a1.378 1.378 0 0 1-.367 0l-57.686-15.651c-.547-.123-.99-.562-1.151-1.144a1.76 1.76 0 0 1 .374-1.645 1.445 1.445 0 0 1 1.51-.428l57.696 15.607c.843.11 1.444.941 1.343 1.857-.101.916-.867 1.569-1.71 1.459l-.01-.055zM443.27 573.944a1.05 1.05 0 0 1-.367 0l-57.686-15.662c-.547-.123-.99-.562-1.151-1.144a1.76 1.76 0 0 1 .374-1.645 1.445 1.445 0 0 1 1.51-.428l57.696 15.607c.843.11 1.444.941 1.343 1.857-.101.916-.867 1.569-1.71 1.459l-.01-.044zM443.482 593.988a1.384 1.384 0 0 1-.368 0l-57.892-15.697c-.55-.123-.994-.563-1.156-1.146a1.764 1.764 0 0 1 .376-1.65 1.45 1.45 0 0 1 1.515-.43l57.903 15.653c.74.212 1.221.984 1.129 1.809-.093.824-.732 1.448-1.497 1.46h-.01zM443.27 614.966a1.379 1.379 0 0 1-.367 0l-57.686-15.686c-.547-.123-.99-.562-1.151-1.143a1.758 1.758 0 0 1 .374-1.644 1.445 1.445 0 0 1 1.51-.428l57.696 15.609c.843.11 1.444.94 1.343 1.856-.101.915-.867 1.568-1.71 1.458l-.01-.022z" fill="#56CEE2" opacity=".35"/>
    <path d="M284.746 698.987c-.855.115-1.632-.569-1.735-1.528-.102-.959.508-1.83 1.363-1.944l27.993-7.849V443.829c.002-.865.568-1.599 1.332-1.725l25.514-4.086c.856-.137 1.648.528 1.771 1.487.123.96-.471 1.848-1.327 1.986l-24.244 3.843v243.744c0 .798-.486 1.492-1.177 1.679l-29.17 8.184a1.363 1.363 0 0 1-.32.046zM396.487 759c-.821 0-1.487-.781-1.487-1.745v-94.51c0-.964.666-1.745 1.487-1.745h49.026c.821 0 1.487.781 1.487 1.745 0 .964-.666 1.746-1.487 1.746h-47.538v92.764c0 .964-.666 1.745-1.488 1.745zM942.49 611h-31.98c-.834 0-1.51-.778-1.51-1.738v-69.524c0-.96.676-1.738 1.51-1.738h31.98c.834 0 1.51.778 1.51 1.738v69.524c0 .96-.676 1.738-1.51 1.738zm-30.471-3.476h28.962v-66.048h-28.962v66.048zM1176.5 801h-120c-.829 0-1.5-.772-1.5-1.725v-172.55c0-.953.671-1.725 1.5-1.725h120c.829 0 1.5.772 1.5 1.725v172.55c0 .953-.671 1.725-1.5 1.725zM1058 797.55H1175v-169.1H1058v169.1zM911 813c-1.105 0-2-.777-2-1.735v-171.53c0-.958.895-1.735 2-1.735s2 .777 2 1.735v171.588c-.036.935-.92 1.678-2 1.677zM923 813c-1.105 0-2-.777-2-1.735v-171.53c0-.958.895-1.735 2-1.735s2 .777 2 1.735v171.588c-.036.935-.92 1.678-2 1.677zM933 813c-1.105 0-2-.777-2-1.735v-171.53c0-.958.895-1.735 2-1.735s2 .777 2 1.735v171.588c-.036.935-.92 1.678-2 1.677zM942 813c-1.105 0-2-.777-2-1.735v-171.53c0-.958.895-1.735 2-1.735s2 .777 2 1.735v171.588c-.036.935-.92 1.678-2 1.677zM953 813c-1.105 0-2-.777-2-1.735v-171.53c0-.958.895-1.735 2-1.735s2 .777 2 1.735v171.588c-.036.935-.92 1.678-2 1.677zM966 813c-1.105 0-2-.777-2-1.735v-171.53c0-.958.895-1.735 2-1.735s2 .777 2 1.735v171.588c-.036.935-.92 1.678-2 1.677zM976 813c-1.105 0-2-.777-2-1.735v-171.53c0-.958.895-1.735 2-1.735s2 .777 2 1.735v171.588c-.036.935-.92 1.678-2 1.677zM988 813c-1.105 0-2-.777-2-1.735v-171.53c0-.958.895-1.735 2-1.735s2 .777 2 1.735v171.588c-.036.935-.92 1.678-2 1.677zM1347.423 802h-40.846c-.87 0-1.577-.77-1.577-1.72V593.72c0-.95.706-1.72 1.577-1.72h40.846c.87 0 1.577.77 1.577 1.72v206.56c0 .95-.706 1.72-1.577 1.72zm-39.268-3.44h37.69V595.486h-37.69V798.56z" fill="#56CEE2" opacity=".35"/>
    <path d="M893.488 619c-.822 0-1.488-.772-1.488-1.725V527.97c0-.952.666-1.724 1.488-1.724h9.029v-14.52c0-.953.666-1.725 1.488-1.725h10.507c.822 0 1.488.772 1.488 1.725 0 .952-.666 1.724-1.488 1.724h-9.019v14.52c0 .953-.666 1.725-1.488 1.725h-9.029v87.581c0 .953-.666 1.725-1.488 1.725zM739.464 742c-.848 0-1.536-.776-1.536-1.734v-43.164h-27.392c-.848 0-1.536-.776-1.536-1.734v-81.634c0-.958.688-1.734 1.536-1.734.848 0 1.536.776 1.536 1.734v79.9h27.392c.848 0 1.536.777 1.536 1.734v44.898c0 .958-.688 1.734-1.536 1.734z" fill-opacity=".5" fill="#56CEE2" opacity=".35"/>
    <path d="M1173 85.523c0 32.848 22.833 59.477 51 59.477 0 0-19.065-23.082-18.926-57.432C1205.224 49.872 1224 26 1224 26c-13.533 0-26.511 6.273-36.077 17.437C1178.358 54.6 1172.99 69.74 1173 85.523z" fill="#56CEE2"/>
    <ellipse fill="#41B6C4" cx="980" cy="93.5" rx="6" ry="6.5"/>
    <ellipse fill="#2C7FB8" cx="1343" cy="194.5" rx="6" ry="6.5"/>
    <ellipse fill="#56CEE2" cx="1348" cy="6.5" rx="6" ry="6.5"/>
    <ellipse fill="#2C7FB8" cx="1056" cy="6.5" rx="6" ry="6.5"/>
    <ellipse fill="#2C7FB8" cx="1053" cy="240.5" rx="6" ry="6.5"/>
    <ellipse fill="#56CEE2" cx="1176" cy="293.5" rx="6" ry="6.5"/>
    <ellipse fill="#56CEE2" cx="1121" cy="142.5" rx="6" ry="6.5"/>
    <ellipse fill="#41B6C4" cx="1382" cy="308.5" rx="6" ry="6.5"/>
    <ellipse fill="#41B6C4" cx="883" cy="210.5" rx="6" ry="6.5"/>
    <ellipse fill="#56CEE2" cx="772" cy="6.5" rx="6" ry="6.5"/>
    <path d="M259.605 73.75c2.022-38.042-75.848-53.029-82.927-8.07-27.305-29.972-118.322 54.181-5.057 64.556 28.317 2.594 96.074 14.986 115.289-9.222 19.78-24.923-1.012-48.417-27.305-47.264z" opacity=".6" fill="#F2F2F2"/>
    <path d="M1195.282 217.7c-2.813-1.87-9.302-.97-10.683 1.126 0 0 2.03-32.663 1.38-32.742-3.92-.833-15.233 4.607-18.28 12.097-2.82 6.803-4.176 14.241-3.96 21.726.242 2.649-.986 5.196-3.108 6.442-6.398 3.818-14.42.924-21.631 0a22.524 22.524 0 0 1 .06 13.651c7.509-4.706 16.154-6.694 24.73-5.688 4.184.496 19.783 1.51 23.033-1.464 1.493-1.363 4.062-3.154 5.667-4.347 2.56-1.84 5.82-1.992 8.51-.395-.62-4.629-2.57-8.3-5.718-10.407zM1160 237.687c.414 3.206 9.637 7.786 10.465 8.082 5.936 1.792 9.878-7.382 9.511-8.769-4.895 3.192-19.976.687-19.976.687zM1325.24 134.764c-1.07-2.88.845-6.318-.903-8.696-1.749-2.378-21.358-12.252-29.177-13.068 2.515 6.447 10.511 9.233 10.914 16.32.118 2.204-.59 4.372-.639 6.587-.049 2.215.983 4.814 2.83 4.99-5.773 4.242-12.479 6.352-19.265 6.06a40.325 40.325 0 0 1 2.25 12.043c4.054-3.784 8.743-6.495 13.753-7.95a88.05 88.05 0 0 0 19.422.07c2.18-.257 4.47-.315 6.386-1.574 1.915-1.26 3.27-3.719 5.04-5.42 1.768-1.703 4.636-2.507 6.149-.479-2.171-6.924-10.295-12.077-16.76-8.883zM1023.629 132.983c.889-.417 1.789-.857 2.698-1.308a118.97 118.97 0 0 0 18.673 6.766c-2.388-1.94-3.598-3.766-5.17-5.176a57.551 57.551 0 0 0-5.914-4.51h-.072c1.955-.488 4-.299 5.852.541-.94-6.573-4.725-9.02-10.763-9.967-6.876-1.038-14.785.327-20.358 4.848-5.573 4.522-11.518 11.005-18.445 11.355-.714 3.9-1.427 9.336-2.13 13.237 0 0 8.385-6.765 11.26-8.93 1.23-.925 3.897-1.827 5.241-2.616-1.096 4.082-1.426 8.084.31 11.648 1.882 3.867 4.684 7.092 7.455 10.26 3.588 4.104 8.592 9.753 12.19 13.869 2.45-.575 1.675-15.21 1.706-18.638.062-7.24.041-14.794-2.533-21.379zM214 224.078c-18.874-1.586-24.684 21.322-23.937 33.922 5.043-3.084 13.779-3.8 21.052-2.533-.02-2.247-.02-21.884 2.885-31.389z" fill-opacity=".75" fill="#FEFEFE"/>
    <path d="M224 269.298c0-8.307-9.05-10.583-11.862-11.634-4.448-1.664-16.3-1.664-23.682 3.327-7.413 1.652-13.385-4.991-19.265-4.991-5.148 5.592 0 26.574 2.966 29.936 2.955-3.328 12.098-14.315 16.3-11.646 1.482 11.646 1.482 48.236 26.678 43.245 0-13.31-8.423-34.927-2.966-44.91 1.802-3.361 8.866-3.327 11.831-3.327zM329 277.406c2.927-1.7 10.246 0 14.637 0 5.854-3.398 21.944-11.883 36.591-10.184 3.13.354 5.845 3.399 8.772 10.184-2.927 0-5.6-.755-7.318 0-2.938 1.31-8.67 7.505-11.7 8.496-4.94 1.617-18.346-2.702-23.377-1.699-3.558.708-7.319 6.797-10.246 6.797v-8.496c-2.968-1.7-4.432-1.7-7.359-5.098zM419.961 132c7.024 9.97 1.405 31.558 1.405 31.558s9.834-1.661 12.634 8.308c-4.205 0-5.61 0-8.42 1.662-3.58 4.235-9.873 10.488-14.048 11.63-4.176 1.143-12.683-2.25-16.85-1.66-3.433.472-8.428 9.969-12.682 8.307 0-4.985 2.81-9.97 4.215-13.292 2.624-2.239 10.078-.981 12.683-3.324 4.214-11.63 11.229-36.543 21.063-43.189z" fill-opacity=".75" fill="#FEFEFE"/>
    <path d="M399.835 140c3.08 0 7.075 8.19 7.165 11.794-2.86 5.054-7.165 13.467-7.165 20.206-4.305-1.685-6.309-14.625-5.74-20.206.279-2.808 2.9-11.794 5.74-11.794z" fill-opacity=".75" fill="#FEFEFE"/>
  </g>
</svg>
