<svg width="259" height="259" xmlns="http://www.w3.org/2000/svg" style="background:#e1e4f0">
  <g fill="none" fill-rule="evenodd">
    <path fill="#FFF" d="M156.442 131l-26.22 14L104 131v-28l26.221-14 26.221 14z"/>
    <path fill="#CCE7FF" d="M150.199 127.87l-19.978 11.012-19.978-11.011-6.243 3.058L130.221 145l26.221-14.07z"/>
    <path stroke="#253494" stroke-width="2" stroke-linecap="round" stroke-linejoin="round" d="M118.791 123.259l5.08 4.612h12.7l5.08-4.612M115.43 111.4l5.042-3.953 5.043 3.953M134.927 111.4l5.043-3.953 5.042 3.953"/>
    <path stroke="#253494" stroke-width="2" stroke-linecap="round" stroke-linejoin="round" d="M156.442 131l-26.22 14L104 131v-28l26.221-14 26.221 14z"/>
    <path fill="#FFF" d="M118.413 168.398l-21.706 11.133L75 168.398v-22.265L96.707 135l21.706 11.133z"/>
    <path fill="#CCE7FF" d="M113.245 166.172l-16.538 8.588-16.539-8.588L75 168.557l21.707 10.974 21.706-10.974z"/>
    <path stroke="#253494" stroke-width="2" stroke-linecap="round" stroke-linejoin="round" d="M87.63 162.46l4.21 3.712h10.524l4.21-3.711M84.472 152.813l4.341-2.97 4.342 2.97M100.259 152.813l4.341-2.97 4.341 2.97"/>
    <path stroke="#253494" stroke-width="2" stroke-linecap="round" stroke-linejoin="round" d="M118.413 168.398l-21.706 11.133L75 168.398v-22.265L96.707 135l21.706 11.133z"/>
    <g>
      <path fill="#FFF" d="M184.427 168.398l-21.214 11.133L142 168.398v-22.265L163.213 135l21.214 11.133z"/>
      <path fill="#CCE7FF" d="M179.376 165.91l-16.163 8.756-16.162-8.756-5.051 2.432 21.213 11.19 21.214-11.19z"/>
      <path stroke="#253494" stroke-width="2" stroke-linecap="round" stroke-linejoin="round" d="M153.966 162.243l4.11 3.667h10.274l4.11-3.667M151.247 152.813l4.08-3.144 4.079 3.143M167.02 152.813l4.08-3.144 4.08 3.143"/>
      <path stroke="#253494" stroke-width="2" stroke-linecap="round" stroke-linejoin="round" d="M184.427 168.398l-21.214 11.133L142 168.398v-22.265L163.213 135l21.214 11.133z"/>
    </g>
    <g>
      <path fill="#FFF" d="M120.413 79.578L98.707 90.77 77 79.578V57.193L98.707 46l21.706 11.193z"/>
      <path fill="#CCE7FF" d="M115.245 76.842l-16.538 8.954-16.539-8.954L77 79.329 98.707 90.77l21.706-11.44z"/>
      <path stroke="#253494" stroke-width="2" stroke-linecap="round" stroke-linejoin="round" d="M89.404 73.857l4.134 3.98h10.337l4.135-3.98M86.303 63.908l4.134-2.985 4.135 2.985M102.841 63.908l4.135-2.985 4.134 2.985"/>
      <path stroke="#253494" stroke-width="2" stroke-linecap="round" stroke-linejoin="round" d="M120.413 79.578L98.707 90.77 77 79.578V57.193L98.707 46l21.706 11.193z"/>
    </g>
    <g>
      <path fill="#FFF" d="M184.427 79.578L163.213 90.77 142 79.578V57.193L163.213 46l21.214 11.193z"/>
      <path fill="#CCE7FF" d="M179.376 77.076l-16.163 8.804-16.162-8.804L142 79.52l21.213 11.25 21.214-11.25z"/>
      <path stroke="#253494" stroke-width="2" stroke-linecap="round" stroke-linejoin="round" d="M153.966 73.389l4.11 3.687h10.274l4.11-3.687M151.247 63.908l4.08-3.16 4.079 3.16M167.02 63.908l4.08-3.16 4.08 3.16"/>
      <path stroke="#253494" stroke-width="2" stroke-linecap="round" stroke-linejoin="round" d="M184.427 79.578L163.213 90.77 142 79.578V57.193L163.213 46l21.214 11.193z"/>
    </g>
    <path d="M50.863 110.733l3.842-1.899v3.798c2.3-1.313 2.053-.876 3.841-1.9v3.799h3.842c-1.417 5.238-8.454 9.7-12.656 12.43 5.508-.214 21.588 1.341 27.186-4.462 5.597-5.803 1.51-13.384 6.985-15.01.743-.221 3.587.14 5.097.14-1.51-1.488-1.085-3.267-1.51-4.463-1.53-6.453-10.266-4.406-13.497.777l-2.181-4.068C65.954 88.945 49.15 98.9 43 105.393c.9.06 2.1-.356 4.022-.356v3.798l3.841-1.9v3.798M111.863 196.733l3.842-1.899v3.798c2.3-1.313 2.053-.876 3.841-1.9v3.799h3.842c-1.417 5.238-8.454 9.7-12.656 12.43 5.508-.214 21.588 1.341 27.186-4.462 5.597-5.803 1.51-13.384 6.985-15.01.743-.221 3.587.14 5.097.14-1.51-1.488-1.085-3.267-1.51-4.463-1.53-6.453-10.266-4.406-13.497.777l-2.181-4.068c-5.858-10.93-22.662-.975-28.812 5.518.9.06 2.1-.356 4.022-.356v3.798l3.841-1.9v3.798M208.137 110.733l-3.842-1.899v3.798c-2.3-1.313-2.053-.876-3.841-1.9v3.799h-3.842c1.417 5.238 8.454 9.7 12.656 12.43-5.508-.214-21.588 1.341-27.186-4.462-5.597-5.803-1.51-13.384-6.985-15.01-.743-.221-3.587.14-5.097.14 1.51-1.488 1.085-3.267 1.51-4.463 1.53-6.453 10.266-4.406 13.497.777l2.181-4.068c5.858-10.93 22.662-.975 28.812 5.518-.9.06-2.1-.356-4.022-.356v3.798l-3.841-1.9v3.798" stroke="#253494" stroke-width="2" fill="#CCE7FF" stroke-linecap="round" stroke-linejoin="round"/>
  </g>
</svg>
