<?xml version="1.0" encoding="UTF-8"?>
<svg width="380px" height="50px" viewBox="0 0 380 50" version="1.1" xmlns="http://www.w3.org/2000/svg" xmlns:xlink="http://www.w3.org/1999/xlink">
    <!-- Generator: Sketch 49.1 (51147) - http://www.bohemiancoding.com/sketch -->
    <title>Name</title>
    <desc>Created with Sketch.</desc>
    <defs></defs>
    <g id="Desktop" stroke="none" stroke-width="1" fill="none" fill-rule="evenodd">
        <g id="Landing-Page" transform="translate(-35.000000, -33.000000)">
            <g id="Name" transform="translate(40.000000, 36.000000)">
                <path d="M67.4576859,31.6978022 L61.1494946,31.6978022 L59.638407,36.6153846 L57,36.6153846 L62.9963795,17.3846154 L65.610801,17.3846154 L71.6311661,36.6153846 L68.9687736,36.6153846 L67.4576859,31.6978022 Z M66.6421783,29.032967 L64.315583,21.478022 L61.9889878,29.032967 L66.6421783,29.032967 Z M75.6367476,20.1868132 L70.8156585,20.1868132 L70.8156585,17.3846154 L83.0962438,17.3846154 L83.0962438,20.1868132 L78.2511691,20.1868132 L78.2511691,36.6153846 L75.6367476,36.6153846 L75.6367476,20.1868132 Z M85.3508825,17.3846154 L87.965304,17.3846154 L87.965304,33.9230769 L95.328858,33.9230769 L95.328858,36.6153846 L85.3508825,36.6153846 L85.3508825,17.3846154 Z M106.050385,31.6978022 L99.7421934,31.6978022 L98.2311057,36.6153846 L95.5926987,36.6153846 L101.589078,17.3846154 L104.2035,17.3846154 L110.223865,36.6153846 L107.561472,36.6153846 L106.050385,31.6978022 Z M105.234877,29.032967 L102.908282,21.478022 L100.581687,29.032967 L105.234877,29.032967 Z M112.238648,17.3846154 L114.925026,17.3846154 L122.744305,30.9285714 L122.744305,17.3846154 L125.382712,17.3846154 L125.382712,36.6153846 L123.176045,36.6153846 L114.85307,22.2747253 L114.85307,36.6153846 L112.238648,36.6153846 L112.238648,17.3846154 Z M132.434455,20.1868132 L127.613366,20.1868132 L127.613366,17.3846154 L139.893951,17.3846154 L139.893951,20.1868132 L135.048876,20.1868132 L135.048876,36.6153846 L132.434455,36.6153846 L132.434455,20.1868132 Z M149.536129,31.6978022 L143.227938,31.6978022 L141.71685,36.6153846 L139.078443,36.6153846 L145.074823,17.3846154 L147.689244,17.3846154 L153.709609,36.6153846 L151.047217,36.6153846 L149.536129,31.6978022 Z M148.720622,29.032967 L146.394026,21.478022 L144.067431,29.032967 L148.720622,29.032967 Z M169.803892,31.6978022 L163.495701,31.6978022 L161.984613,36.6153846 L159.346206,36.6153846 L165.342586,17.3846154 L167.957007,17.3846154 L173.977372,36.6153846 L171.31498,36.6153846 L169.803892,31.6978022 Z M168.988384,29.032967 L166.661789,21.478022 L164.335194,29.032967 L168.988384,29.032967 Z M182.372304,37 C180.069682,37 178.334747,36.244513 177.167446,34.7335165 C176.000145,33.2225199 175.416503,31.1208926 175.416503,28.4285714 L175.416503,17.3846154 L178.030925,17.3846154 L178.030925,27.6318681 C178.030925,29.7014755 178.334738,31.313181 178.942374,32.467033 C179.550011,33.6208849 180.693309,34.1978022 182.372304,34.1978022 C184.051298,34.1978022 185.194596,33.6208849 185.802233,32.467033 C186.409869,31.313181 186.713682,29.7014755 186.713682,27.6318681 L186.713682,17.3846154 L189.328104,17.3846154 L189.328104,28.4285714 C189.328104,31.1208926 188.744462,33.2225199 187.577161,34.7335165 C186.40986,36.244513 184.674925,37 182.372304,37 Z M192.901946,17.3846154 L199.138181,17.3846154 C200.753214,17.3846154 202.19233,17.7692269 203.455574,18.5384615 C204.718818,19.3076962 205.702214,20.4157437 206.405793,21.8626374 C207.109371,23.309531 207.461156,25.0219681 207.461156,27 C207.461156,28.9780319 207.109371,30.690469 206.405793,32.1373626 C205.702214,33.5842563 204.718818,34.6923038 203.455574,35.4615385 C202.19233,36.2307731 200.753214,36.6153846 199.138181,36.6153846 L192.901946,36.6153846 L192.901946,17.3846154 Z M199.138181,33.9230769 C200.897128,33.9230769 202.244301,33.3049512 203.179741,32.0686813 C204.11518,30.8324114 204.582893,29.1428679 204.582893,27 C204.582893,24.8571321 204.11518,23.1675886 203.179741,21.9313187 C202.244301,20.6950488 200.897128,20.0769231 199.138181,20.0769231 L195.516367,20.0769231 L195.516367,33.9230769 L199.138181,33.9230769 Z M217.031377,37 C214.728756,37 212.993821,36.244513 211.82652,34.7335165 C210.659219,33.2225199 210.075577,31.1208926 210.075577,28.4285714 L210.075577,17.3846154 L212.689998,17.3846154 L212.689998,27.6318681 C212.689998,29.7014755 212.993812,31.313181 213.601448,32.467033 C214.209084,33.6208849 215.352383,34.1978022 217.031377,34.1978022 C218.710372,34.1978022 219.85367,33.6208849 220.461306,32.467033 C221.068943,31.313181 221.372756,29.7014755 221.372756,27.6318681 L221.372756,17.3846154 L223.987178,17.3846154 L223.987178,28.4285714 C223.987178,31.1208926 223.403536,33.2225199 222.236235,34.7335165 C221.068934,36.244513 219.333999,37 217.031377,37 Z M236.339719,26.1208791 C237.395087,26.4505511 238.198594,27.0366258 238.750264,27.8791209 C239.301934,28.7216159 239.577764,29.8021912 239.577764,31.1208791 C239.577764,32.8241843 239.098059,34.165746 238.138633,35.1456044 C237.179208,36.1254628 235.860017,36.6153846 234.181023,36.6153846 L227.56102,36.6153846 L227.56102,17.3846154 L233.293559,17.3846154 C234.86062,17.3846154 236.055887,17.7783843 236.879394,18.5659341 C237.7029,19.3534838 238.114648,20.5164758 238.114648,22.0549451 C238.114648,22.9890157 237.962741,23.8040258 237.658923,24.5 C237.355105,25.1959742 236.915375,25.7362618 236.339719,26.1208791 Z M230.175441,25.1868132 L232.933776,25.1868132 C233.765278,25.1868132 234.39689,24.9945074 234.828632,24.6098901 C235.260373,24.2252728 235.476241,23.5659387 235.476241,22.6318681 C235.476241,21.6977975 235.260373,21.0338848 234.828632,20.6401099 C234.39689,20.246335 233.765278,20.0494505 232.933776,20.0494505 L230.175441,20.0494505 L230.175441,25.1868132 Z M233.869211,33.9230769 C234.796656,33.9230769 235.516214,33.6804054 236.027908,33.1950549 C236.539601,32.7097045 236.795444,31.9542176 236.795444,30.9285714 C236.795444,28.8955942 235.820043,27.8791209 233.869211,27.8791209 L230.175441,27.8791209 L230.175441,33.9230769 L233.869211,33.9230769 Z M249.459798,37 C247.860755,37 246.437629,36.5879162 245.190376,35.7637363 C243.943122,34.9395563 242.963724,33.7719856 242.25215,32.260989 C241.540576,30.7499924 241.184794,28.996347 241.184794,27 C241.184794,25.003653 241.540576,23.2500076 242.25215,21.739011 C242.963724,20.2280144 243.943122,19.0604437 245.190376,18.2362637 C246.437629,17.4120838 247.860755,17 249.459798,17 C251.05884,17 252.481967,17.4120838 253.72922,18.2362637 C254.976473,19.0604437 255.955872,20.2280144 256.667446,21.739011 C257.37902,23.2500076 257.734802,25.003653 257.734802,27 C257.734802,28.996347 257.37902,30.7499924 256.667446,32.260989 C255.955872,33.7719856 254.976473,34.9395563 253.72922,35.7637363 C252.481967,36.5879162 251.05884,37 249.459798,37 Z M249.459798,34.0879121 C250.643089,34.0879121 251.646473,33.7811386 252.46998,33.1675824 C253.293487,32.5540262 253.913107,31.7115438 254.328858,30.6401099 C254.744609,29.568676 254.952482,28.3553181 254.952482,27 C254.952482,25.6446819 254.744609,24.431324 254.328858,23.3598901 C253.913107,22.2884562 253.293487,21.4459738 252.46998,20.8324176 C251.646473,20.2188614 250.643089,19.9120879 249.459798,19.9120879 C248.276506,19.9120879 247.273122,20.2188614 246.449615,20.8324176 C245.626108,21.4459738 245.002491,22.2884562 244.578745,23.3598901 C244.154999,24.431324 243.943129,25.6446819 243.943129,27 C243.943129,28.3553181 244.154999,29.568676 244.578745,30.6401099 C245.002491,31.7115438 245.626108,32.5540262 246.449615,33.1675824 C247.273122,33.7811386 248.276506,34.0879121 249.459798,34.0879121 Z M260.541107,17.3846154 L263.227485,17.3846154 L271.046764,30.9285714 L271.046764,17.3846154 L273.685171,17.3846154 L273.685171,36.6153846 L271.478504,36.6153846 L263.155529,22.2747253 L263.155529,36.6153846 L260.541107,36.6153846 L260.541107,17.3846154 Z M287.668728,37 C286.693312,37 285.681933,36.8672174 284.63456,36.6016484 C283.587187,36.3360793 282.759695,36.0293058 282.152059,35.6813187 L282.487856,32.521978 C283.351339,32.9981709 284.270775,33.3965185 285.246191,33.717033 C286.221607,34.0375474 287.181018,34.1978022 288.124453,34.1978022 C289.13185,34.1978022 289.915369,33.9871816 290.475034,33.5659341 C291.034699,33.1446865 291.314527,32.5036673 291.314527,31.6428571 C291.314527,31.0018283 291.166618,30.4752768 290.870795,30.0631868 C290.574972,29.6510968 290.147235,29.2985363 289.58757,29.0054945 C289.027905,28.7124527 288.212405,28.3644709 287.141047,27.9615385 C286.085679,27.5769212 285.210216,27.1694161 284.514633,26.739011 C283.819049,26.3086059 283.259393,25.7362673 282.835646,25.021978 C282.4119,24.3076887 282.20003,23.4102618 282.20003,22.3296703 C282.20003,20.7362558 282.723709,19.4496386 283.771082,18.4697802 C284.818454,17.4899218 286.309539,17 288.244381,17 C289.219797,17 290.171213,17.1236251 291.098657,17.3708791 C292.026102,17.6181331 292.849597,17.9249066 293.569166,18.2912088 L293.28134,21.3956044 C292.337904,20.8461511 291.454447,20.438646 290.63094,20.1730769 C289.807433,19.9075078 288.963951,19.7747253 288.100468,19.7747253 C287.125052,19.7747253 286.357523,19.9761885 285.797858,20.3791209 C285.238193,20.7820533 284.958365,21.3864429 284.958365,22.1923077 C284.958365,22.7600761 285.094281,23.2316831 285.366119,23.6071429 C285.637956,23.9826026 286.017723,24.2985335 286.505431,24.5549451 C286.993139,24.8113566 287.692709,25.104394 288.604164,25.4340659 C290.507024,26.0934099 291.91416,26.8809478 292.825615,27.7967033 C293.737069,28.7124588 294.192789,29.9578676 294.192789,31.532967 C294.192789,33.1263816 293.677106,34.4358923 292.645723,35.4615385 C291.614341,36.4871846 289.955359,37 287.668728,37 Z M304.098808,37 C302.499766,37 301.076639,36.5879162 299.829386,35.7637363 C298.582133,34.9395563 297.602734,33.7719856 296.89116,32.260989 C296.179586,30.7499924 295.823804,28.996347 295.823804,27 C295.823804,25.003653 296.179586,23.2500076 296.89116,21.739011 C297.602734,20.2280144 298.582133,19.0604437 299.829386,18.2362637 C301.076639,17.4120838 302.499766,17 304.098808,17 C305.697851,17 307.120977,17.4120838 308.368231,18.2362637 C309.615484,19.0604437 310.594883,20.2280144 311.306456,21.739011 C312.01803,23.2500076 312.373812,25.003653 312.373812,27 C312.373812,28.996347 312.01803,30.7499924 311.306456,32.260989 C310.594883,33.7719856 309.615484,34.9395563 308.368231,35.7637363 C307.120977,36.5879162 305.697851,37 304.098808,37 Z M304.098808,34.0879121 C305.2821,34.0879121 306.285484,33.7811386 307.108991,33.1675824 C307.932498,32.5540262 308.552117,31.7115438 308.967868,30.6401099 C309.38362,29.568676 309.591492,28.3553181 309.591492,27 C309.591492,25.6446819 309.38362,24.431324 308.967868,23.3598901 C308.552117,22.2884562 307.932498,21.4459738 307.108991,20.8324176 C306.285484,20.2188614 305.2821,19.9120879 304.098808,19.9120879 C302.915517,19.9120879 301.912133,20.2188614 301.088626,20.8324176 C300.265119,21.4459738 299.641502,22.2884562 299.217755,23.3598901 C298.794009,24.431324 298.582139,25.6446819 298.582139,27 C298.582139,28.3553181 298.794009,29.568676 299.217755,30.6401099 C299.641502,31.7115438 300.265119,32.5540262 301.088626,33.1675824 C301.912133,33.7811386 302.915517,34.0879121 304.098808,34.0879121 Z M322.71157,37 C321.064557,37 319.593459,36.5879162 318.298235,35.7637363 C317.003011,34.9395563 315.991631,33.7719856 315.264067,32.260989 C314.536503,30.7499924 314.172726,28.996347 314.172726,27 C314.172726,25.003653 314.544498,23.2500076 315.288052,21.739011 C316.031607,20.2280144 317.054979,19.0604437 318.358199,18.2362637 C319.661418,17.4120838 321.144508,17 322.807512,17 C323.639015,17 324.434526,17.1007316 325.194072,17.3021978 C325.953617,17.503664 326.629202,17.7783865 327.220848,18.1263736 L326.957007,20.9285714 C325.501878,20.1776519 324.110732,19.8021978 322.783527,19.8021978 C321.552264,19.8021978 320.508905,20.11355 319.653417,20.7362637 C318.797929,21.3589775 318.150327,22.2106173 317.71059,23.2912088 C317.270853,24.3718003 317.050988,25.6080516 317.050988,27 C317.050988,28.3919484 317.266856,29.6281997 317.698597,30.7087912 C318.130339,31.7893827 318.769946,32.6410225 319.617439,33.2637363 C320.464931,33.88645 321.496298,34.1978022 322.71157,34.1978022 C323.495101,34.1978022 324.222655,34.1016493 324.894253,33.9093407 C325.56585,33.717032 326.253428,33.4377308 326.957007,33.0714286 L327.220848,35.9010989 C325.7977,36.6337033 324.294622,37 322.71157,37 Z M329.88324,17.3846154 L332.497662,17.3846154 L332.497662,36.6153846 L329.88324,36.6153846 L329.88324,17.3846154 Z M336.263388,17.3846154 L346.721074,17.3846154 L346.721074,20.1868132 L338.901795,20.1868132 L338.901795,25.1593407 L345.042088,25.1593407 L345.042088,27.9615385 L338.901795,27.9615385 L338.901795,33.8131868 L346.936944,33.8131868 L346.936944,36.6153846 L336.263388,36.6153846 L336.263388,17.3846154 Z M352.981294,20.1868132 L348.160205,20.1868132 L348.160205,17.3846154 L360.44079,17.3846154 L360.44079,20.1868132 L355.595716,20.1868132 L355.595716,36.6153846 L352.981294,36.6153846 L352.981294,20.1868132 Z M375,17.3846154 L369.099563,28.510989 L369.099563,36.6153846 L366.485141,36.6153846 L366.485141,28.510989 L360.560718,17.3846154 L363.486951,17.3846154 L367.780359,25.7362637 L372.073767,17.3846154 L375,17.3846154 Z" fill="#F0F3F5"></path>
                <polygon id="logo" stroke="#FFFFFF" stroke-width="2" fill-rule="nonzero" points="41.6109049 11.8911101 40.9400959 18.6591967 30.2015947 30.1833234 24.4974027 30.1833234 22.3150968 36.4026517 22.3150968 45 14.5966254 42.62198 23.4899851 25.2436906 0 10.7923816 17.6175815 13.3537924 9.05990411 0 32.3826038 13.7201698 39.2618693 5.30520235 42.4499255 5.30520235 50 8.9637258"></polygon>
            </g>
        </g>
    </g>
</svg>