<?xml version="1.0" encoding="UTF-8"?>
<svg width="55px" height="55px" viewBox="0 0 55 55" version="1.1" xmlns="http://www.w3.org/2000/svg" xmlns:xlink="http://www.w3.org/1999/xlink">
    <!-- Generator: Sketch 49 (51002) - http://www.bohemiancoding.com/sketch -->
    <title>twitter</title>
    <desc>Created with Sketch.</desc>
    <defs></defs>
    <g id="twitter" stroke="none" stroke-width="1" fill="none" fill-rule="evenodd">
        <g id="Twitter" transform="translate(9.000000, 13.000000)" fill="#253494" fill-rule="nonzero">
            <g id="twitter-[#154]">
                <g id="Page-1">
                    <g id="Dribbble-Light-Preview">
                        <g id="icons">
                            <path d="M12.1943662,31 C26.8256669,31 34.8285833,19.0789589 34.8285833,8.74003123 C34.8285833,8.40114524 34.8285833,8.06419573 34.805319,7.72918272 C36.3590714,6.62480493 37.7029837,5.25225135 38.7738194,3.67610619 C37.3207272,4.31058252 35.7814629,4.72628663 34.2062635,4.90965122 C35.8598926,3.93944637 37.1031692,2.40088172 37.703662,0.58159292 C36.1385274,1.49371463 34.4304427,2.1353201 32.6514333,2.4793545 C29.6156871,-0.671644257 24.615622,-0.822181398 21.3953935,2.14046851 C19.3351517,4.03538617 18.455859,6.89151003 19.0941674,9.61532535 C12.7227243,9.31151926 6.77274593,6.34587879 2.69865783,1.4433316 C0.589072183,5.02151048 1.67532835,9.62453803 5.16273405,11.8848933 C3.89828838,11.849045 2.66042459,11.5138802 1.55095278,10.9069651 L1.55095278,11.0057262 C1.55289147,14.7295992 4.22246893,17.9364289 7.93312345,18.6742322 C6.76175041,18.9889459 5.53423807,19.0346275 4.34266777,18.8078501 C5.38374482,21.9953149 8.37126761,24.1777408 11.7736703,24.241645 C8.4269401,26.8234921 4.1985678,27.9884004 -3.50830476e-14,27.4852681 C3.65015386,29.7846755 7.87894478,31.0015079 12.1943662,30.9941905" id="twitter-[#154]"></path>
                        </g>
                    </g>
                </g>
            </g>
        </g>
    </g>
</svg>
